<mxfile host="app.diagrams.net" agent="Mozilla/5.0 (Windows NT 10.0; Win64; x64) AppleWebKit/537.36 (KHTML, like Gecko) Chrome/128.0.0.0 Safari/537.36" border="50" scale="3" compressed="false" locked="false" version="24.7.13">
  <diagram name="Blank" id="YmL12bMKpDGza6XwsDPr">
    <mxGraphModel dx="1434" dy="772" grid="0" gridSize="10" guides="1" tooltips="1" connect="1" arrows="1" fold="1" page="1" pageScale="1" pageWidth="1169" pageHeight="827" background="none" math="1" shadow="0">
      <root>
        <mxCell id="X5NqExCQtvZxIxQ7pmgY-0" />
        <mxCell id="1" parent="X5NqExCQtvZxIxQ7pmgY-0" />
        <mxCell id="CQitvJXa9ZDl-KHa1buW-18" value="" style="rounded=0;whiteSpace=wrap;html=1;" vertex="1" parent="1">
          <mxGeometry x="196" y="240" width="99" height="893" as="geometry" />
        </mxCell>
        <mxCell id="NjAqU9Y5rHBkyYTPuW-a-1" value="Process Bar" style="swimlane;fontStyle=2;childLayout=stackLayout;horizontal=1;startSize=20;fillColor=none;horizontalStack=1;resizeParent=1;resizeParentMax=0;resizeLast=0;collapsible=0;marginBottom=0;swimlaneFillColor=none;strokeColor=none;fontFamily=Helvetica;fontSize=14;fontColor=#BABABA;points=[];verticalAlign=middle;stackBorder=10;stackSpacing=-10;resizable=1;" parent="1" vertex="1">
          <mxGeometry x="185" y="136" width="1226" height="101" as="geometry" />
        </mxCell>
        <mxCell id="NjAqU9Y5rHBkyYTPuW-a-2" value="Data Source" style="shape=step;perimeter=stepPerimeter;strokeColor=#6C8EBF;fontFamily=Helvetica;fontSize=14;fontColor=#6C8EBF;fillColor=#dae8fc;fixedSize=1;size=17;fontStyle=1;strokeWidth=2;spacingTop=0;points=[];" parent="NjAqU9Y5rHBkyYTPuW-a-1" vertex="1">
          <mxGeometry x="10" y="30" width="120" height="61" as="geometry" />
        </mxCell>
        <mxCell id="NjAqU9Y5rHBkyYTPuW-a-3" value="Staging" style="shape=step;perimeter=stepPerimeter;strokeColor=#82B366;fontFamily=Helvetica;fontSize=14;fontColor=#82B366;fillColor=#d5e8d4;fixedSize=1;size=17;fontStyle=1;strokeWidth=2;spacingTop=0;points=[];" parent="NjAqU9Y5rHBkyYTPuW-a-1" vertex="1">
          <mxGeometry x="120" y="30" width="173" height="61" as="geometry" />
        </mxCell>
        <mxCell id="NjAqU9Y5rHBkyYTPuW-a-4" value="Operation Data Strore (ODS)" style="shape=step;perimeter=stepPerimeter;strokeColor=#D6B656;fontFamily=Helvetica;fontSize=14;fontColor=#D6B656;fillColor=#fff2cc;fixedSize=1;size=17;fontStyle=1;strokeWidth=2;spacingTop=0;points=[];" parent="NjAqU9Y5rHBkyYTPuW-a-1" vertex="1">
          <mxGeometry x="283" y="30" width="228" height="61" as="geometry" />
        </mxCell>
        <mxCell id="NjAqU9Y5rHBkyYTPuW-a-5" value="Data Warehouse" style="shape=step;perimeter=stepPerimeter;strokeColor=#B85450;fontFamily=Helvetica;fontSize=14;fontColor=#B85450;fillColor=#f8cecc;fixedSize=1;size=17;fontStyle=1;strokeWidth=2;spacingTop=0;points=[];" parent="NjAqU9Y5rHBkyYTPuW-a-1" vertex="1">
          <mxGeometry x="501" y="30" width="528" height="61" as="geometry" />
        </mxCell>
        <mxCell id="CQitvJXa9ZDl-KHa1buW-13" value="Data Presentation" style="shape=step;perimeter=stepPerimeter;strokeColor=#B85450;fontFamily=Helvetica;fontSize=14;fontColor=#B85450;fillColor=#f8cecc;fixedSize=1;size=17;fontStyle=1;strokeWidth=2;spacingTop=0;points=[];" vertex="1" parent="NjAqU9Y5rHBkyYTPuW-a-1">
          <mxGeometry x="1019" y="30" width="197" height="61" as="geometry" />
        </mxCell>
        <mxCell id="CQitvJXa9ZDl-KHa1buW-2" value="" style="dashed=0;outlineConnect=0;html=1;align=center;labelPosition=center;verticalLabelPosition=bottom;verticalAlign=top;shape=mxgraph.webicons.json;gradientColor=#DFDEDE" vertex="1" parent="1">
          <mxGeometry x="201.3" y="273" width="87.7" height="90" as="geometry" />
        </mxCell>
        <mxCell id="CQitvJXa9ZDl-KHa1buW-19" value="" style="rounded=0;whiteSpace=wrap;html=1;" vertex="1" parent="1">
          <mxGeometry x="304" y="242" width="161" height="891" as="geometry" />
        </mxCell>
        <mxCell id="CQitvJXa9ZDl-KHa1buW-33" value="covid_features_stg" style="shape=table;startSize=30;container=1;collapsible=0;childLayout=tableLayout;strokeColor=default;fontSize=16;" vertex="1" parent="1">
          <mxGeometry x="318" y="270" width="139" height="90.75" as="geometry" />
        </mxCell>
        <mxCell id="CQitvJXa9ZDl-KHa1buW-34" value="" style="shape=tableRow;horizontal=0;startSize=0;swimlaneHead=0;swimlaneBody=0;strokeColor=inherit;top=0;left=0;bottom=0;right=0;collapsible=0;dropTarget=0;fillColor=none;points=[[0,0.5],[1,0.5]];portConstraint=eastwest;fontSize=16;" vertex="1" parent="CQitvJXa9ZDl-KHa1buW-33">
          <mxGeometry y="30" width="139" height="20" as="geometry" />
        </mxCell>
        <mxCell id="CQitvJXa9ZDl-KHa1buW-35" value="" style="shape=partialRectangle;html=1;whiteSpace=wrap;connectable=0;strokeColor=inherit;overflow=hidden;fillColor=none;top=0;left=0;bottom=0;right=0;pointerEvents=1;fontSize=16;" vertex="1" parent="CQitvJXa9ZDl-KHa1buW-34">
          <mxGeometry width="45" height="20" as="geometry">
            <mxRectangle width="45" height="20" as="alternateBounds" />
          </mxGeometry>
        </mxCell>
        <mxCell id="CQitvJXa9ZDl-KHa1buW-36" value="" style="shape=partialRectangle;html=1;whiteSpace=wrap;connectable=0;strokeColor=inherit;overflow=hidden;fillColor=none;top=0;left=0;bottom=0;right=0;pointerEvents=1;fontSize=16;" vertex="1" parent="CQitvJXa9ZDl-KHa1buW-34">
          <mxGeometry x="45" width="49" height="20" as="geometry">
            <mxRectangle width="49" height="20" as="alternateBounds" />
          </mxGeometry>
        </mxCell>
        <mxCell id="CQitvJXa9ZDl-KHa1buW-37" value="" style="shape=partialRectangle;html=1;whiteSpace=wrap;connectable=0;strokeColor=inherit;overflow=hidden;fillColor=none;top=0;left=0;bottom=0;right=0;pointerEvents=1;fontSize=16;" vertex="1" parent="CQitvJXa9ZDl-KHa1buW-34">
          <mxGeometry x="94" width="45" height="20" as="geometry">
            <mxRectangle width="45" height="20" as="alternateBounds" />
          </mxGeometry>
        </mxCell>
        <mxCell id="CQitvJXa9ZDl-KHa1buW-38" value="" style="shape=tableRow;horizontal=0;startSize=0;swimlaneHead=0;swimlaneBody=0;strokeColor=inherit;top=0;left=0;bottom=0;right=0;collapsible=0;dropTarget=0;fillColor=none;points=[[0,0.5],[1,0.5]];portConstraint=eastwest;fontSize=16;" vertex="1" parent="CQitvJXa9ZDl-KHa1buW-33">
          <mxGeometry y="50" width="139" height="21" as="geometry" />
        </mxCell>
        <mxCell id="CQitvJXa9ZDl-KHa1buW-39" value="" style="shape=partialRectangle;html=1;whiteSpace=wrap;connectable=0;strokeColor=inherit;overflow=hidden;fillColor=none;top=0;left=0;bottom=0;right=0;pointerEvents=1;fontSize=16;" vertex="1" parent="CQitvJXa9ZDl-KHa1buW-38">
          <mxGeometry width="45" height="21" as="geometry">
            <mxRectangle width="45" height="21" as="alternateBounds" />
          </mxGeometry>
        </mxCell>
        <mxCell id="CQitvJXa9ZDl-KHa1buW-40" value="" style="shape=partialRectangle;html=1;whiteSpace=wrap;connectable=0;strokeColor=inherit;overflow=hidden;fillColor=none;top=0;left=0;bottom=0;right=0;pointerEvents=1;fontSize=16;" vertex="1" parent="CQitvJXa9ZDl-KHa1buW-38">
          <mxGeometry x="45" width="49" height="21" as="geometry">
            <mxRectangle width="49" height="21" as="alternateBounds" />
          </mxGeometry>
        </mxCell>
        <mxCell id="CQitvJXa9ZDl-KHa1buW-41" value="" style="shape=partialRectangle;html=1;whiteSpace=wrap;connectable=0;strokeColor=inherit;overflow=hidden;fillColor=none;top=0;left=0;bottom=0;right=0;pointerEvents=1;fontSize=16;" vertex="1" parent="CQitvJXa9ZDl-KHa1buW-38">
          <mxGeometry x="94" width="45" height="21" as="geometry">
            <mxRectangle width="45" height="21" as="alternateBounds" />
          </mxGeometry>
        </mxCell>
        <mxCell id="CQitvJXa9ZDl-KHa1buW-42" value="" style="shape=tableRow;horizontal=0;startSize=0;swimlaneHead=0;swimlaneBody=0;strokeColor=inherit;top=0;left=0;bottom=0;right=0;collapsible=0;dropTarget=0;fillColor=none;points=[[0,0.5],[1,0.5]];portConstraint=eastwest;fontSize=16;" vertex="1" parent="CQitvJXa9ZDl-KHa1buW-33">
          <mxGeometry y="71" width="139" height="20" as="geometry" />
        </mxCell>
        <mxCell id="CQitvJXa9ZDl-KHa1buW-43" value="" style="shape=partialRectangle;html=1;whiteSpace=wrap;connectable=0;strokeColor=inherit;overflow=hidden;fillColor=none;top=0;left=0;bottom=0;right=0;pointerEvents=1;fontSize=16;" vertex="1" parent="CQitvJXa9ZDl-KHa1buW-42">
          <mxGeometry width="45" height="20" as="geometry">
            <mxRectangle width="45" height="20" as="alternateBounds" />
          </mxGeometry>
        </mxCell>
        <mxCell id="CQitvJXa9ZDl-KHa1buW-44" value="" style="shape=partialRectangle;html=1;whiteSpace=wrap;connectable=0;strokeColor=inherit;overflow=hidden;fillColor=none;top=0;left=0;bottom=0;right=0;pointerEvents=1;fontSize=16;" vertex="1" parent="CQitvJXa9ZDl-KHa1buW-42">
          <mxGeometry x="45" width="49" height="20" as="geometry">
            <mxRectangle width="49" height="20" as="alternateBounds" />
          </mxGeometry>
        </mxCell>
        <mxCell id="CQitvJXa9ZDl-KHa1buW-45" value="" style="shape=partialRectangle;html=1;whiteSpace=wrap;connectable=0;strokeColor=inherit;overflow=hidden;fillColor=none;top=0;left=0;bottom=0;right=0;pointerEvents=1;fontSize=16;" vertex="1" parent="CQitvJXa9ZDl-KHa1buW-42">
          <mxGeometry x="94" width="45" height="20" as="geometry">
            <mxRectangle width="45" height="20" as="alternateBounds" />
          </mxGeometry>
        </mxCell>
        <mxCell id="CQitvJXa9ZDl-KHa1buW-46" value="business_stg" style="shape=table;startSize=30;container=1;collapsible=0;childLayout=tableLayout;strokeColor=default;fontSize=16;" vertex="1" parent="1">
          <mxGeometry x="317" y="383" width="139" height="90.75" as="geometry" />
        </mxCell>
        <mxCell id="CQitvJXa9ZDl-KHa1buW-47" value="" style="shape=tableRow;horizontal=0;startSize=0;swimlaneHead=0;swimlaneBody=0;strokeColor=inherit;top=0;left=0;bottom=0;right=0;collapsible=0;dropTarget=0;fillColor=none;points=[[0,0.5],[1,0.5]];portConstraint=eastwest;fontSize=16;" vertex="1" parent="CQitvJXa9ZDl-KHa1buW-46">
          <mxGeometry y="30" width="139" height="20" as="geometry" />
        </mxCell>
        <mxCell id="CQitvJXa9ZDl-KHa1buW-48" value="" style="shape=partialRectangle;html=1;whiteSpace=wrap;connectable=0;strokeColor=inherit;overflow=hidden;fillColor=none;top=0;left=0;bottom=0;right=0;pointerEvents=1;fontSize=16;" vertex="1" parent="CQitvJXa9ZDl-KHa1buW-47">
          <mxGeometry width="45" height="20" as="geometry">
            <mxRectangle width="45" height="20" as="alternateBounds" />
          </mxGeometry>
        </mxCell>
        <mxCell id="CQitvJXa9ZDl-KHa1buW-49" value="" style="shape=partialRectangle;html=1;whiteSpace=wrap;connectable=0;strokeColor=inherit;overflow=hidden;fillColor=none;top=0;left=0;bottom=0;right=0;pointerEvents=1;fontSize=16;" vertex="1" parent="CQitvJXa9ZDl-KHa1buW-47">
          <mxGeometry x="45" width="49" height="20" as="geometry">
            <mxRectangle width="49" height="20" as="alternateBounds" />
          </mxGeometry>
        </mxCell>
        <mxCell id="CQitvJXa9ZDl-KHa1buW-50" value="" style="shape=partialRectangle;html=1;whiteSpace=wrap;connectable=0;strokeColor=inherit;overflow=hidden;fillColor=none;top=0;left=0;bottom=0;right=0;pointerEvents=1;fontSize=16;" vertex="1" parent="CQitvJXa9ZDl-KHa1buW-47">
          <mxGeometry x="94" width="45" height="20" as="geometry">
            <mxRectangle width="45" height="20" as="alternateBounds" />
          </mxGeometry>
        </mxCell>
        <mxCell id="CQitvJXa9ZDl-KHa1buW-51" value="" style="shape=tableRow;horizontal=0;startSize=0;swimlaneHead=0;swimlaneBody=0;strokeColor=inherit;top=0;left=0;bottom=0;right=0;collapsible=0;dropTarget=0;fillColor=none;points=[[0,0.5],[1,0.5]];portConstraint=eastwest;fontSize=16;" vertex="1" parent="CQitvJXa9ZDl-KHa1buW-46">
          <mxGeometry y="50" width="139" height="21" as="geometry" />
        </mxCell>
        <mxCell id="CQitvJXa9ZDl-KHa1buW-52" value="" style="shape=partialRectangle;html=1;whiteSpace=wrap;connectable=0;strokeColor=inherit;overflow=hidden;fillColor=none;top=0;left=0;bottom=0;right=0;pointerEvents=1;fontSize=16;" vertex="1" parent="CQitvJXa9ZDl-KHa1buW-51">
          <mxGeometry width="45" height="21" as="geometry">
            <mxRectangle width="45" height="21" as="alternateBounds" />
          </mxGeometry>
        </mxCell>
        <mxCell id="CQitvJXa9ZDl-KHa1buW-53" value="" style="shape=partialRectangle;html=1;whiteSpace=wrap;connectable=0;strokeColor=inherit;overflow=hidden;fillColor=none;top=0;left=0;bottom=0;right=0;pointerEvents=1;fontSize=16;" vertex="1" parent="CQitvJXa9ZDl-KHa1buW-51">
          <mxGeometry x="45" width="49" height="21" as="geometry">
            <mxRectangle width="49" height="21" as="alternateBounds" />
          </mxGeometry>
        </mxCell>
        <mxCell id="CQitvJXa9ZDl-KHa1buW-54" value="" style="shape=partialRectangle;html=1;whiteSpace=wrap;connectable=0;strokeColor=inherit;overflow=hidden;fillColor=none;top=0;left=0;bottom=0;right=0;pointerEvents=1;fontSize=16;" vertex="1" parent="CQitvJXa9ZDl-KHa1buW-51">
          <mxGeometry x="94" width="45" height="21" as="geometry">
            <mxRectangle width="45" height="21" as="alternateBounds" />
          </mxGeometry>
        </mxCell>
        <mxCell id="CQitvJXa9ZDl-KHa1buW-55" value="" style="shape=tableRow;horizontal=0;startSize=0;swimlaneHead=0;swimlaneBody=0;strokeColor=inherit;top=0;left=0;bottom=0;right=0;collapsible=0;dropTarget=0;fillColor=none;points=[[0,0.5],[1,0.5]];portConstraint=eastwest;fontSize=16;" vertex="1" parent="CQitvJXa9ZDl-KHa1buW-46">
          <mxGeometry y="71" width="139" height="20" as="geometry" />
        </mxCell>
        <mxCell id="CQitvJXa9ZDl-KHa1buW-56" value="" style="shape=partialRectangle;html=1;whiteSpace=wrap;connectable=0;strokeColor=inherit;overflow=hidden;fillColor=none;top=0;left=0;bottom=0;right=0;pointerEvents=1;fontSize=16;" vertex="1" parent="CQitvJXa9ZDl-KHa1buW-55">
          <mxGeometry width="45" height="20" as="geometry">
            <mxRectangle width="45" height="20" as="alternateBounds" />
          </mxGeometry>
        </mxCell>
        <mxCell id="CQitvJXa9ZDl-KHa1buW-57" value="" style="shape=partialRectangle;html=1;whiteSpace=wrap;connectable=0;strokeColor=inherit;overflow=hidden;fillColor=none;top=0;left=0;bottom=0;right=0;pointerEvents=1;fontSize=16;" vertex="1" parent="CQitvJXa9ZDl-KHa1buW-55">
          <mxGeometry x="45" width="49" height="20" as="geometry">
            <mxRectangle width="49" height="20" as="alternateBounds" />
          </mxGeometry>
        </mxCell>
        <mxCell id="CQitvJXa9ZDl-KHa1buW-58" value="" style="shape=partialRectangle;html=1;whiteSpace=wrap;connectable=0;strokeColor=inherit;overflow=hidden;fillColor=none;top=0;left=0;bottom=0;right=0;pointerEvents=1;fontSize=16;" vertex="1" parent="CQitvJXa9ZDl-KHa1buW-55">
          <mxGeometry x="94" width="45" height="20" as="geometry">
            <mxRectangle width="45" height="20" as="alternateBounds" />
          </mxGeometry>
        </mxCell>
        <mxCell id="CQitvJXa9ZDl-KHa1buW-59" value="checkin_stg" style="shape=table;startSize=30;container=1;collapsible=0;childLayout=tableLayout;strokeColor=default;fontSize=16;" vertex="1" parent="1">
          <mxGeometry x="318" y="494" width="139" height="90.75" as="geometry" />
        </mxCell>
        <mxCell id="CQitvJXa9ZDl-KHa1buW-60" value="" style="shape=tableRow;horizontal=0;startSize=0;swimlaneHead=0;swimlaneBody=0;strokeColor=inherit;top=0;left=0;bottom=0;right=0;collapsible=0;dropTarget=0;fillColor=none;points=[[0,0.5],[1,0.5]];portConstraint=eastwest;fontSize=16;" vertex="1" parent="CQitvJXa9ZDl-KHa1buW-59">
          <mxGeometry y="30" width="139" height="20" as="geometry" />
        </mxCell>
        <mxCell id="CQitvJXa9ZDl-KHa1buW-61" value="" style="shape=partialRectangle;html=1;whiteSpace=wrap;connectable=0;strokeColor=inherit;overflow=hidden;fillColor=none;top=0;left=0;bottom=0;right=0;pointerEvents=1;fontSize=16;" vertex="1" parent="CQitvJXa9ZDl-KHa1buW-60">
          <mxGeometry width="45" height="20" as="geometry">
            <mxRectangle width="45" height="20" as="alternateBounds" />
          </mxGeometry>
        </mxCell>
        <mxCell id="CQitvJXa9ZDl-KHa1buW-62" value="" style="shape=partialRectangle;html=1;whiteSpace=wrap;connectable=0;strokeColor=inherit;overflow=hidden;fillColor=none;top=0;left=0;bottom=0;right=0;pointerEvents=1;fontSize=16;" vertex="1" parent="CQitvJXa9ZDl-KHa1buW-60">
          <mxGeometry x="45" width="49" height="20" as="geometry">
            <mxRectangle width="49" height="20" as="alternateBounds" />
          </mxGeometry>
        </mxCell>
        <mxCell id="CQitvJXa9ZDl-KHa1buW-63" value="" style="shape=partialRectangle;html=1;whiteSpace=wrap;connectable=0;strokeColor=inherit;overflow=hidden;fillColor=none;top=0;left=0;bottom=0;right=0;pointerEvents=1;fontSize=16;" vertex="1" parent="CQitvJXa9ZDl-KHa1buW-60">
          <mxGeometry x="94" width="45" height="20" as="geometry">
            <mxRectangle width="45" height="20" as="alternateBounds" />
          </mxGeometry>
        </mxCell>
        <mxCell id="CQitvJXa9ZDl-KHa1buW-64" value="" style="shape=tableRow;horizontal=0;startSize=0;swimlaneHead=0;swimlaneBody=0;strokeColor=inherit;top=0;left=0;bottom=0;right=0;collapsible=0;dropTarget=0;fillColor=none;points=[[0,0.5],[1,0.5]];portConstraint=eastwest;fontSize=16;" vertex="1" parent="CQitvJXa9ZDl-KHa1buW-59">
          <mxGeometry y="50" width="139" height="21" as="geometry" />
        </mxCell>
        <mxCell id="CQitvJXa9ZDl-KHa1buW-65" value="" style="shape=partialRectangle;html=1;whiteSpace=wrap;connectable=0;strokeColor=inherit;overflow=hidden;fillColor=none;top=0;left=0;bottom=0;right=0;pointerEvents=1;fontSize=16;" vertex="1" parent="CQitvJXa9ZDl-KHa1buW-64">
          <mxGeometry width="45" height="21" as="geometry">
            <mxRectangle width="45" height="21" as="alternateBounds" />
          </mxGeometry>
        </mxCell>
        <mxCell id="CQitvJXa9ZDl-KHa1buW-66" value="" style="shape=partialRectangle;html=1;whiteSpace=wrap;connectable=0;strokeColor=inherit;overflow=hidden;fillColor=none;top=0;left=0;bottom=0;right=0;pointerEvents=1;fontSize=16;" vertex="1" parent="CQitvJXa9ZDl-KHa1buW-64">
          <mxGeometry x="45" width="49" height="21" as="geometry">
            <mxRectangle width="49" height="21" as="alternateBounds" />
          </mxGeometry>
        </mxCell>
        <mxCell id="CQitvJXa9ZDl-KHa1buW-67" value="" style="shape=partialRectangle;html=1;whiteSpace=wrap;connectable=0;strokeColor=inherit;overflow=hidden;fillColor=none;top=0;left=0;bottom=0;right=0;pointerEvents=1;fontSize=16;" vertex="1" parent="CQitvJXa9ZDl-KHa1buW-64">
          <mxGeometry x="94" width="45" height="21" as="geometry">
            <mxRectangle width="45" height="21" as="alternateBounds" />
          </mxGeometry>
        </mxCell>
        <mxCell id="CQitvJXa9ZDl-KHa1buW-68" value="" style="shape=tableRow;horizontal=0;startSize=0;swimlaneHead=0;swimlaneBody=0;strokeColor=inherit;top=0;left=0;bottom=0;right=0;collapsible=0;dropTarget=0;fillColor=none;points=[[0,0.5],[1,0.5]];portConstraint=eastwest;fontSize=16;" vertex="1" parent="CQitvJXa9ZDl-KHa1buW-59">
          <mxGeometry y="71" width="139" height="20" as="geometry" />
        </mxCell>
        <mxCell id="CQitvJXa9ZDl-KHa1buW-69" value="" style="shape=partialRectangle;html=1;whiteSpace=wrap;connectable=0;strokeColor=inherit;overflow=hidden;fillColor=none;top=0;left=0;bottom=0;right=0;pointerEvents=1;fontSize=16;" vertex="1" parent="CQitvJXa9ZDl-KHa1buW-68">
          <mxGeometry width="45" height="20" as="geometry">
            <mxRectangle width="45" height="20" as="alternateBounds" />
          </mxGeometry>
        </mxCell>
        <mxCell id="CQitvJXa9ZDl-KHa1buW-70" value="" style="shape=partialRectangle;html=1;whiteSpace=wrap;connectable=0;strokeColor=inherit;overflow=hidden;fillColor=none;top=0;left=0;bottom=0;right=0;pointerEvents=1;fontSize=16;" vertex="1" parent="CQitvJXa9ZDl-KHa1buW-68">
          <mxGeometry x="45" width="49" height="20" as="geometry">
            <mxRectangle width="49" height="20" as="alternateBounds" />
          </mxGeometry>
        </mxCell>
        <mxCell id="CQitvJXa9ZDl-KHa1buW-71" value="" style="shape=partialRectangle;html=1;whiteSpace=wrap;connectable=0;strokeColor=inherit;overflow=hidden;fillColor=none;top=0;left=0;bottom=0;right=0;pointerEvents=1;fontSize=16;" vertex="1" parent="CQitvJXa9ZDl-KHa1buW-68">
          <mxGeometry x="94" width="45" height="20" as="geometry">
            <mxRectangle width="45" height="20" as="alternateBounds" />
          </mxGeometry>
        </mxCell>
        <mxCell id="CQitvJXa9ZDl-KHa1buW-72" value="review_stg" style="shape=table;startSize=30;container=1;collapsible=0;childLayout=tableLayout;strokeColor=default;fontSize=16;" vertex="1" parent="1">
          <mxGeometry x="318" y="599" width="139" height="90.75" as="geometry" />
        </mxCell>
        <mxCell id="CQitvJXa9ZDl-KHa1buW-73" value="" style="shape=tableRow;horizontal=0;startSize=0;swimlaneHead=0;swimlaneBody=0;strokeColor=inherit;top=0;left=0;bottom=0;right=0;collapsible=0;dropTarget=0;fillColor=none;points=[[0,0.5],[1,0.5]];portConstraint=eastwest;fontSize=16;" vertex="1" parent="CQitvJXa9ZDl-KHa1buW-72">
          <mxGeometry y="30" width="139" height="20" as="geometry" />
        </mxCell>
        <mxCell id="CQitvJXa9ZDl-KHa1buW-74" value="" style="shape=partialRectangle;html=1;whiteSpace=wrap;connectable=0;strokeColor=inherit;overflow=hidden;fillColor=none;top=0;left=0;bottom=0;right=0;pointerEvents=1;fontSize=16;" vertex="1" parent="CQitvJXa9ZDl-KHa1buW-73">
          <mxGeometry width="45" height="20" as="geometry">
            <mxRectangle width="45" height="20" as="alternateBounds" />
          </mxGeometry>
        </mxCell>
        <mxCell id="CQitvJXa9ZDl-KHa1buW-75" value="" style="shape=partialRectangle;html=1;whiteSpace=wrap;connectable=0;strokeColor=inherit;overflow=hidden;fillColor=none;top=0;left=0;bottom=0;right=0;pointerEvents=1;fontSize=16;" vertex="1" parent="CQitvJXa9ZDl-KHa1buW-73">
          <mxGeometry x="45" width="49" height="20" as="geometry">
            <mxRectangle width="49" height="20" as="alternateBounds" />
          </mxGeometry>
        </mxCell>
        <mxCell id="CQitvJXa9ZDl-KHa1buW-76" value="" style="shape=partialRectangle;html=1;whiteSpace=wrap;connectable=0;strokeColor=inherit;overflow=hidden;fillColor=none;top=0;left=0;bottom=0;right=0;pointerEvents=1;fontSize=16;" vertex="1" parent="CQitvJXa9ZDl-KHa1buW-73">
          <mxGeometry x="94" width="45" height="20" as="geometry">
            <mxRectangle width="45" height="20" as="alternateBounds" />
          </mxGeometry>
        </mxCell>
        <mxCell id="CQitvJXa9ZDl-KHa1buW-77" value="" style="shape=tableRow;horizontal=0;startSize=0;swimlaneHead=0;swimlaneBody=0;strokeColor=inherit;top=0;left=0;bottom=0;right=0;collapsible=0;dropTarget=0;fillColor=none;points=[[0,0.5],[1,0.5]];portConstraint=eastwest;fontSize=16;" vertex="1" parent="CQitvJXa9ZDl-KHa1buW-72">
          <mxGeometry y="50" width="139" height="21" as="geometry" />
        </mxCell>
        <mxCell id="CQitvJXa9ZDl-KHa1buW-78" value="" style="shape=partialRectangle;html=1;whiteSpace=wrap;connectable=0;strokeColor=inherit;overflow=hidden;fillColor=none;top=0;left=0;bottom=0;right=0;pointerEvents=1;fontSize=16;" vertex="1" parent="CQitvJXa9ZDl-KHa1buW-77">
          <mxGeometry width="45" height="21" as="geometry">
            <mxRectangle width="45" height="21" as="alternateBounds" />
          </mxGeometry>
        </mxCell>
        <mxCell id="CQitvJXa9ZDl-KHa1buW-79" value="" style="shape=partialRectangle;html=1;whiteSpace=wrap;connectable=0;strokeColor=inherit;overflow=hidden;fillColor=none;top=0;left=0;bottom=0;right=0;pointerEvents=1;fontSize=16;" vertex="1" parent="CQitvJXa9ZDl-KHa1buW-77">
          <mxGeometry x="45" width="49" height="21" as="geometry">
            <mxRectangle width="49" height="21" as="alternateBounds" />
          </mxGeometry>
        </mxCell>
        <mxCell id="CQitvJXa9ZDl-KHa1buW-80" value="" style="shape=partialRectangle;html=1;whiteSpace=wrap;connectable=0;strokeColor=inherit;overflow=hidden;fillColor=none;top=0;left=0;bottom=0;right=0;pointerEvents=1;fontSize=16;" vertex="1" parent="CQitvJXa9ZDl-KHa1buW-77">
          <mxGeometry x="94" width="45" height="21" as="geometry">
            <mxRectangle width="45" height="21" as="alternateBounds" />
          </mxGeometry>
        </mxCell>
        <mxCell id="CQitvJXa9ZDl-KHa1buW-81" value="" style="shape=tableRow;horizontal=0;startSize=0;swimlaneHead=0;swimlaneBody=0;strokeColor=inherit;top=0;left=0;bottom=0;right=0;collapsible=0;dropTarget=0;fillColor=none;points=[[0,0.5],[1,0.5]];portConstraint=eastwest;fontSize=16;" vertex="1" parent="CQitvJXa9ZDl-KHa1buW-72">
          <mxGeometry y="71" width="139" height="20" as="geometry" />
        </mxCell>
        <mxCell id="CQitvJXa9ZDl-KHa1buW-82" value="" style="shape=partialRectangle;html=1;whiteSpace=wrap;connectable=0;strokeColor=inherit;overflow=hidden;fillColor=none;top=0;left=0;bottom=0;right=0;pointerEvents=1;fontSize=16;" vertex="1" parent="CQitvJXa9ZDl-KHa1buW-81">
          <mxGeometry width="45" height="20" as="geometry">
            <mxRectangle width="45" height="20" as="alternateBounds" />
          </mxGeometry>
        </mxCell>
        <mxCell id="CQitvJXa9ZDl-KHa1buW-83" value="" style="shape=partialRectangle;html=1;whiteSpace=wrap;connectable=0;strokeColor=inherit;overflow=hidden;fillColor=none;top=0;left=0;bottom=0;right=0;pointerEvents=1;fontSize=16;" vertex="1" parent="CQitvJXa9ZDl-KHa1buW-81">
          <mxGeometry x="45" width="49" height="20" as="geometry">
            <mxRectangle width="49" height="20" as="alternateBounds" />
          </mxGeometry>
        </mxCell>
        <mxCell id="CQitvJXa9ZDl-KHa1buW-84" value="" style="shape=partialRectangle;html=1;whiteSpace=wrap;connectable=0;strokeColor=inherit;overflow=hidden;fillColor=none;top=0;left=0;bottom=0;right=0;pointerEvents=1;fontSize=16;" vertex="1" parent="CQitvJXa9ZDl-KHa1buW-81">
          <mxGeometry x="94" width="45" height="20" as="geometry">
            <mxRectangle width="45" height="20" as="alternateBounds" />
          </mxGeometry>
        </mxCell>
        <mxCell id="CQitvJXa9ZDl-KHa1buW-85" value="user_stg" style="shape=table;startSize=30;container=1;collapsible=0;childLayout=tableLayout;strokeColor=default;fontSize=16;" vertex="1" parent="1">
          <mxGeometry x="318" y="817" width="139" height="90.75" as="geometry" />
        </mxCell>
        <mxCell id="CQitvJXa9ZDl-KHa1buW-86" value="" style="shape=tableRow;horizontal=0;startSize=0;swimlaneHead=0;swimlaneBody=0;strokeColor=inherit;top=0;left=0;bottom=0;right=0;collapsible=0;dropTarget=0;fillColor=none;points=[[0,0.5],[1,0.5]];portConstraint=eastwest;fontSize=16;" vertex="1" parent="CQitvJXa9ZDl-KHa1buW-85">
          <mxGeometry y="30" width="139" height="20" as="geometry" />
        </mxCell>
        <mxCell id="CQitvJXa9ZDl-KHa1buW-87" value="" style="shape=partialRectangle;html=1;whiteSpace=wrap;connectable=0;strokeColor=inherit;overflow=hidden;fillColor=none;top=0;left=0;bottom=0;right=0;pointerEvents=1;fontSize=16;" vertex="1" parent="CQitvJXa9ZDl-KHa1buW-86">
          <mxGeometry width="45" height="20" as="geometry">
            <mxRectangle width="45" height="20" as="alternateBounds" />
          </mxGeometry>
        </mxCell>
        <mxCell id="CQitvJXa9ZDl-KHa1buW-88" value="" style="shape=partialRectangle;html=1;whiteSpace=wrap;connectable=0;strokeColor=inherit;overflow=hidden;fillColor=none;top=0;left=0;bottom=0;right=0;pointerEvents=1;fontSize=16;" vertex="1" parent="CQitvJXa9ZDl-KHa1buW-86">
          <mxGeometry x="45" width="49" height="20" as="geometry">
            <mxRectangle width="49" height="20" as="alternateBounds" />
          </mxGeometry>
        </mxCell>
        <mxCell id="CQitvJXa9ZDl-KHa1buW-89" value="" style="shape=partialRectangle;html=1;whiteSpace=wrap;connectable=0;strokeColor=inherit;overflow=hidden;fillColor=none;top=0;left=0;bottom=0;right=0;pointerEvents=1;fontSize=16;" vertex="1" parent="CQitvJXa9ZDl-KHa1buW-86">
          <mxGeometry x="94" width="45" height="20" as="geometry">
            <mxRectangle width="45" height="20" as="alternateBounds" />
          </mxGeometry>
        </mxCell>
        <mxCell id="CQitvJXa9ZDl-KHa1buW-90" value="" style="shape=tableRow;horizontal=0;startSize=0;swimlaneHead=0;swimlaneBody=0;strokeColor=inherit;top=0;left=0;bottom=0;right=0;collapsible=0;dropTarget=0;fillColor=none;points=[[0,0.5],[1,0.5]];portConstraint=eastwest;fontSize=16;" vertex="1" parent="CQitvJXa9ZDl-KHa1buW-85">
          <mxGeometry y="50" width="139" height="21" as="geometry" />
        </mxCell>
        <mxCell id="CQitvJXa9ZDl-KHa1buW-91" value="" style="shape=partialRectangle;html=1;whiteSpace=wrap;connectable=0;strokeColor=inherit;overflow=hidden;fillColor=none;top=0;left=0;bottom=0;right=0;pointerEvents=1;fontSize=16;" vertex="1" parent="CQitvJXa9ZDl-KHa1buW-90">
          <mxGeometry width="45" height="21" as="geometry">
            <mxRectangle width="45" height="21" as="alternateBounds" />
          </mxGeometry>
        </mxCell>
        <mxCell id="CQitvJXa9ZDl-KHa1buW-92" value="" style="shape=partialRectangle;html=1;whiteSpace=wrap;connectable=0;strokeColor=inherit;overflow=hidden;fillColor=none;top=0;left=0;bottom=0;right=0;pointerEvents=1;fontSize=16;" vertex="1" parent="CQitvJXa9ZDl-KHa1buW-90">
          <mxGeometry x="45" width="49" height="21" as="geometry">
            <mxRectangle width="49" height="21" as="alternateBounds" />
          </mxGeometry>
        </mxCell>
        <mxCell id="CQitvJXa9ZDl-KHa1buW-93" value="" style="shape=partialRectangle;html=1;whiteSpace=wrap;connectable=0;strokeColor=inherit;overflow=hidden;fillColor=none;top=0;left=0;bottom=0;right=0;pointerEvents=1;fontSize=16;" vertex="1" parent="CQitvJXa9ZDl-KHa1buW-90">
          <mxGeometry x="94" width="45" height="21" as="geometry">
            <mxRectangle width="45" height="21" as="alternateBounds" />
          </mxGeometry>
        </mxCell>
        <mxCell id="CQitvJXa9ZDl-KHa1buW-94" value="" style="shape=tableRow;horizontal=0;startSize=0;swimlaneHead=0;swimlaneBody=0;strokeColor=inherit;top=0;left=0;bottom=0;right=0;collapsible=0;dropTarget=0;fillColor=none;points=[[0,0.5],[1,0.5]];portConstraint=eastwest;fontSize=16;" vertex="1" parent="CQitvJXa9ZDl-KHa1buW-85">
          <mxGeometry y="71" width="139" height="20" as="geometry" />
        </mxCell>
        <mxCell id="CQitvJXa9ZDl-KHa1buW-95" value="" style="shape=partialRectangle;html=1;whiteSpace=wrap;connectable=0;strokeColor=inherit;overflow=hidden;fillColor=none;top=0;left=0;bottom=0;right=0;pointerEvents=1;fontSize=16;" vertex="1" parent="CQitvJXa9ZDl-KHa1buW-94">
          <mxGeometry width="45" height="20" as="geometry">
            <mxRectangle width="45" height="20" as="alternateBounds" />
          </mxGeometry>
        </mxCell>
        <mxCell id="CQitvJXa9ZDl-KHa1buW-96" value="" style="shape=partialRectangle;html=1;whiteSpace=wrap;connectable=0;strokeColor=inherit;overflow=hidden;fillColor=none;top=0;left=0;bottom=0;right=0;pointerEvents=1;fontSize=16;" vertex="1" parent="CQitvJXa9ZDl-KHa1buW-94">
          <mxGeometry x="45" width="49" height="20" as="geometry">
            <mxRectangle width="49" height="20" as="alternateBounds" />
          </mxGeometry>
        </mxCell>
        <mxCell id="CQitvJXa9ZDl-KHa1buW-97" value="" style="shape=partialRectangle;html=1;whiteSpace=wrap;connectable=0;strokeColor=inherit;overflow=hidden;fillColor=none;top=0;left=0;bottom=0;right=0;pointerEvents=1;fontSize=16;" vertex="1" parent="CQitvJXa9ZDl-KHa1buW-94">
          <mxGeometry x="94" width="45" height="20" as="geometry">
            <mxRectangle width="45" height="20" as="alternateBounds" />
          </mxGeometry>
        </mxCell>
        <mxCell id="CQitvJXa9ZDl-KHa1buW-98" value="precipitation_stg" style="shape=table;startSize=30;container=1;collapsible=0;childLayout=tableLayout;strokeColor=default;fontSize=16;" vertex="1" parent="1">
          <mxGeometry x="315.5" y="929" width="139" height="90.75" as="geometry" />
        </mxCell>
        <mxCell id="CQitvJXa9ZDl-KHa1buW-99" value="" style="shape=tableRow;horizontal=0;startSize=0;swimlaneHead=0;swimlaneBody=0;strokeColor=inherit;top=0;left=0;bottom=0;right=0;collapsible=0;dropTarget=0;fillColor=none;points=[[0,0.5],[1,0.5]];portConstraint=eastwest;fontSize=16;" vertex="1" parent="CQitvJXa9ZDl-KHa1buW-98">
          <mxGeometry y="30" width="139" height="20" as="geometry" />
        </mxCell>
        <mxCell id="CQitvJXa9ZDl-KHa1buW-100" value="" style="shape=partialRectangle;html=1;whiteSpace=wrap;connectable=0;strokeColor=inherit;overflow=hidden;fillColor=none;top=0;left=0;bottom=0;right=0;pointerEvents=1;fontSize=16;" vertex="1" parent="CQitvJXa9ZDl-KHa1buW-99">
          <mxGeometry width="45" height="20" as="geometry">
            <mxRectangle width="45" height="20" as="alternateBounds" />
          </mxGeometry>
        </mxCell>
        <mxCell id="CQitvJXa9ZDl-KHa1buW-101" value="" style="shape=partialRectangle;html=1;whiteSpace=wrap;connectable=0;strokeColor=inherit;overflow=hidden;fillColor=none;top=0;left=0;bottom=0;right=0;pointerEvents=1;fontSize=16;" vertex="1" parent="CQitvJXa9ZDl-KHa1buW-99">
          <mxGeometry x="45" width="49" height="20" as="geometry">
            <mxRectangle width="49" height="20" as="alternateBounds" />
          </mxGeometry>
        </mxCell>
        <mxCell id="CQitvJXa9ZDl-KHa1buW-102" value="" style="shape=partialRectangle;html=1;whiteSpace=wrap;connectable=0;strokeColor=inherit;overflow=hidden;fillColor=none;top=0;left=0;bottom=0;right=0;pointerEvents=1;fontSize=16;" vertex="1" parent="CQitvJXa9ZDl-KHa1buW-99">
          <mxGeometry x="94" width="45" height="20" as="geometry">
            <mxRectangle width="45" height="20" as="alternateBounds" />
          </mxGeometry>
        </mxCell>
        <mxCell id="CQitvJXa9ZDl-KHa1buW-103" value="" style="shape=tableRow;horizontal=0;startSize=0;swimlaneHead=0;swimlaneBody=0;strokeColor=inherit;top=0;left=0;bottom=0;right=0;collapsible=0;dropTarget=0;fillColor=none;points=[[0,0.5],[1,0.5]];portConstraint=eastwest;fontSize=16;" vertex="1" parent="CQitvJXa9ZDl-KHa1buW-98">
          <mxGeometry y="50" width="139" height="21" as="geometry" />
        </mxCell>
        <mxCell id="CQitvJXa9ZDl-KHa1buW-104" value="" style="shape=partialRectangle;html=1;whiteSpace=wrap;connectable=0;strokeColor=inherit;overflow=hidden;fillColor=none;top=0;left=0;bottom=0;right=0;pointerEvents=1;fontSize=16;" vertex="1" parent="CQitvJXa9ZDl-KHa1buW-103">
          <mxGeometry width="45" height="21" as="geometry">
            <mxRectangle width="45" height="21" as="alternateBounds" />
          </mxGeometry>
        </mxCell>
        <mxCell id="CQitvJXa9ZDl-KHa1buW-105" value="" style="shape=partialRectangle;html=1;whiteSpace=wrap;connectable=0;strokeColor=inherit;overflow=hidden;fillColor=none;top=0;left=0;bottom=0;right=0;pointerEvents=1;fontSize=16;" vertex="1" parent="CQitvJXa9ZDl-KHa1buW-103">
          <mxGeometry x="45" width="49" height="21" as="geometry">
            <mxRectangle width="49" height="21" as="alternateBounds" />
          </mxGeometry>
        </mxCell>
        <mxCell id="CQitvJXa9ZDl-KHa1buW-106" value="" style="shape=partialRectangle;html=1;whiteSpace=wrap;connectable=0;strokeColor=inherit;overflow=hidden;fillColor=none;top=0;left=0;bottom=0;right=0;pointerEvents=1;fontSize=16;" vertex="1" parent="CQitvJXa9ZDl-KHa1buW-103">
          <mxGeometry x="94" width="45" height="21" as="geometry">
            <mxRectangle width="45" height="21" as="alternateBounds" />
          </mxGeometry>
        </mxCell>
        <mxCell id="CQitvJXa9ZDl-KHa1buW-107" value="" style="shape=tableRow;horizontal=0;startSize=0;swimlaneHead=0;swimlaneBody=0;strokeColor=inherit;top=0;left=0;bottom=0;right=0;collapsible=0;dropTarget=0;fillColor=none;points=[[0,0.5],[1,0.5]];portConstraint=eastwest;fontSize=16;" vertex="1" parent="CQitvJXa9ZDl-KHa1buW-98">
          <mxGeometry y="71" width="139" height="20" as="geometry" />
        </mxCell>
        <mxCell id="CQitvJXa9ZDl-KHa1buW-108" value="" style="shape=partialRectangle;html=1;whiteSpace=wrap;connectable=0;strokeColor=inherit;overflow=hidden;fillColor=none;top=0;left=0;bottom=0;right=0;pointerEvents=1;fontSize=16;" vertex="1" parent="CQitvJXa9ZDl-KHa1buW-107">
          <mxGeometry width="45" height="20" as="geometry">
            <mxRectangle width="45" height="20" as="alternateBounds" />
          </mxGeometry>
        </mxCell>
        <mxCell id="CQitvJXa9ZDl-KHa1buW-109" value="" style="shape=partialRectangle;html=1;whiteSpace=wrap;connectable=0;strokeColor=inherit;overflow=hidden;fillColor=none;top=0;left=0;bottom=0;right=0;pointerEvents=1;fontSize=16;" vertex="1" parent="CQitvJXa9ZDl-KHa1buW-107">
          <mxGeometry x="45" width="49" height="20" as="geometry">
            <mxRectangle width="49" height="20" as="alternateBounds" />
          </mxGeometry>
        </mxCell>
        <mxCell id="CQitvJXa9ZDl-KHa1buW-110" value="" style="shape=partialRectangle;html=1;whiteSpace=wrap;connectable=0;strokeColor=inherit;overflow=hidden;fillColor=none;top=0;left=0;bottom=0;right=0;pointerEvents=1;fontSize=16;" vertex="1" parent="CQitvJXa9ZDl-KHa1buW-107">
          <mxGeometry x="94" width="45" height="20" as="geometry">
            <mxRectangle width="45" height="20" as="alternateBounds" />
          </mxGeometry>
        </mxCell>
        <mxCell id="CQitvJXa9ZDl-KHa1buW-111" value="temperature_stg" style="shape=table;startSize=30;container=1;collapsible=0;childLayout=tableLayout;strokeColor=default;fontSize=16;" vertex="1" parent="1">
          <mxGeometry x="314.5" y="1034" width="139" height="90.75" as="geometry" />
        </mxCell>
        <mxCell id="CQitvJXa9ZDl-KHa1buW-112" value="" style="shape=tableRow;horizontal=0;startSize=0;swimlaneHead=0;swimlaneBody=0;strokeColor=inherit;top=0;left=0;bottom=0;right=0;collapsible=0;dropTarget=0;fillColor=none;points=[[0,0.5],[1,0.5]];portConstraint=eastwest;fontSize=16;" vertex="1" parent="CQitvJXa9ZDl-KHa1buW-111">
          <mxGeometry y="30" width="139" height="20" as="geometry" />
        </mxCell>
        <mxCell id="CQitvJXa9ZDl-KHa1buW-113" value="" style="shape=partialRectangle;html=1;whiteSpace=wrap;connectable=0;strokeColor=inherit;overflow=hidden;fillColor=none;top=0;left=0;bottom=0;right=0;pointerEvents=1;fontSize=16;" vertex="1" parent="CQitvJXa9ZDl-KHa1buW-112">
          <mxGeometry width="45" height="20" as="geometry">
            <mxRectangle width="45" height="20" as="alternateBounds" />
          </mxGeometry>
        </mxCell>
        <mxCell id="CQitvJXa9ZDl-KHa1buW-114" value="" style="shape=partialRectangle;html=1;whiteSpace=wrap;connectable=0;strokeColor=inherit;overflow=hidden;fillColor=none;top=0;left=0;bottom=0;right=0;pointerEvents=1;fontSize=16;" vertex="1" parent="CQitvJXa9ZDl-KHa1buW-112">
          <mxGeometry x="45" width="49" height="20" as="geometry">
            <mxRectangle width="49" height="20" as="alternateBounds" />
          </mxGeometry>
        </mxCell>
        <mxCell id="CQitvJXa9ZDl-KHa1buW-115" value="" style="shape=partialRectangle;html=1;whiteSpace=wrap;connectable=0;strokeColor=inherit;overflow=hidden;fillColor=none;top=0;left=0;bottom=0;right=0;pointerEvents=1;fontSize=16;" vertex="1" parent="CQitvJXa9ZDl-KHa1buW-112">
          <mxGeometry x="94" width="45" height="20" as="geometry">
            <mxRectangle width="45" height="20" as="alternateBounds" />
          </mxGeometry>
        </mxCell>
        <mxCell id="CQitvJXa9ZDl-KHa1buW-116" value="" style="shape=tableRow;horizontal=0;startSize=0;swimlaneHead=0;swimlaneBody=0;strokeColor=inherit;top=0;left=0;bottom=0;right=0;collapsible=0;dropTarget=0;fillColor=none;points=[[0,0.5],[1,0.5]];portConstraint=eastwest;fontSize=16;" vertex="1" parent="CQitvJXa9ZDl-KHa1buW-111">
          <mxGeometry y="50" width="139" height="21" as="geometry" />
        </mxCell>
        <mxCell id="CQitvJXa9ZDl-KHa1buW-117" value="" style="shape=partialRectangle;html=1;whiteSpace=wrap;connectable=0;strokeColor=inherit;overflow=hidden;fillColor=none;top=0;left=0;bottom=0;right=0;pointerEvents=1;fontSize=16;" vertex="1" parent="CQitvJXa9ZDl-KHa1buW-116">
          <mxGeometry width="45" height="21" as="geometry">
            <mxRectangle width="45" height="21" as="alternateBounds" />
          </mxGeometry>
        </mxCell>
        <mxCell id="CQitvJXa9ZDl-KHa1buW-118" value="" style="shape=partialRectangle;html=1;whiteSpace=wrap;connectable=0;strokeColor=inherit;overflow=hidden;fillColor=none;top=0;left=0;bottom=0;right=0;pointerEvents=1;fontSize=16;" vertex="1" parent="CQitvJXa9ZDl-KHa1buW-116">
          <mxGeometry x="45" width="49" height="21" as="geometry">
            <mxRectangle width="49" height="21" as="alternateBounds" />
          </mxGeometry>
        </mxCell>
        <mxCell id="CQitvJXa9ZDl-KHa1buW-119" value="" style="shape=partialRectangle;html=1;whiteSpace=wrap;connectable=0;strokeColor=inherit;overflow=hidden;fillColor=none;top=0;left=0;bottom=0;right=0;pointerEvents=1;fontSize=16;" vertex="1" parent="CQitvJXa9ZDl-KHa1buW-116">
          <mxGeometry x="94" width="45" height="21" as="geometry">
            <mxRectangle width="45" height="21" as="alternateBounds" />
          </mxGeometry>
        </mxCell>
        <mxCell id="CQitvJXa9ZDl-KHa1buW-120" value="" style="shape=tableRow;horizontal=0;startSize=0;swimlaneHead=0;swimlaneBody=0;strokeColor=inherit;top=0;left=0;bottom=0;right=0;collapsible=0;dropTarget=0;fillColor=none;points=[[0,0.5],[1,0.5]];portConstraint=eastwest;fontSize=16;" vertex="1" parent="CQitvJXa9ZDl-KHa1buW-111">
          <mxGeometry y="71" width="139" height="20" as="geometry" />
        </mxCell>
        <mxCell id="CQitvJXa9ZDl-KHa1buW-121" value="" style="shape=partialRectangle;html=1;whiteSpace=wrap;connectable=0;strokeColor=inherit;overflow=hidden;fillColor=none;top=0;left=0;bottom=0;right=0;pointerEvents=1;fontSize=16;" vertex="1" parent="CQitvJXa9ZDl-KHa1buW-120">
          <mxGeometry width="45" height="20" as="geometry">
            <mxRectangle width="45" height="20" as="alternateBounds" />
          </mxGeometry>
        </mxCell>
        <mxCell id="CQitvJXa9ZDl-KHa1buW-122" value="" style="shape=partialRectangle;html=1;whiteSpace=wrap;connectable=0;strokeColor=inherit;overflow=hidden;fillColor=none;top=0;left=0;bottom=0;right=0;pointerEvents=1;fontSize=16;" vertex="1" parent="CQitvJXa9ZDl-KHa1buW-120">
          <mxGeometry x="45" width="49" height="20" as="geometry">
            <mxRectangle width="49" height="20" as="alternateBounds" />
          </mxGeometry>
        </mxCell>
        <mxCell id="CQitvJXa9ZDl-KHa1buW-123" value="" style="shape=partialRectangle;html=1;whiteSpace=wrap;connectable=0;strokeColor=inherit;overflow=hidden;fillColor=none;top=0;left=0;bottom=0;right=0;pointerEvents=1;fontSize=16;" vertex="1" parent="CQitvJXa9ZDl-KHa1buW-120">
          <mxGeometry x="94" width="45" height="20" as="geometry">
            <mxRectangle width="45" height="20" as="alternateBounds" />
          </mxGeometry>
        </mxCell>
        <mxCell id="CQitvJXa9ZDl-KHa1buW-124" value="" style="dashed=0;outlineConnect=0;html=1;align=center;labelPosition=center;verticalLabelPosition=bottom;verticalAlign=top;shape=mxgraph.webicons.json;gradientColor=#DFDEDE" vertex="1" parent="1">
          <mxGeometry x="201.3" y="383.75" width="87.7" height="90" as="geometry" />
        </mxCell>
        <mxCell id="CQitvJXa9ZDl-KHa1buW-125" value="" style="dashed=0;outlineConnect=0;html=1;align=center;labelPosition=center;verticalLabelPosition=bottom;verticalAlign=top;shape=mxgraph.webicons.json;gradientColor=#DFDEDE" vertex="1" parent="1">
          <mxGeometry x="202" y="494.38" width="87.7" height="90" as="geometry" />
        </mxCell>
        <mxCell id="CQitvJXa9ZDl-KHa1buW-126" value="" style="dashed=0;outlineConnect=0;html=1;align=center;labelPosition=center;verticalLabelPosition=bottom;verticalAlign=top;shape=mxgraph.webicons.json;gradientColor=#DFDEDE" vertex="1" parent="1">
          <mxGeometry x="202" y="599.37" width="87.7" height="90" as="geometry" />
        </mxCell>
        <mxCell id="CQitvJXa9ZDl-KHa1buW-127" value="" style="dashed=0;outlineConnect=0;html=1;align=center;labelPosition=center;verticalLabelPosition=bottom;verticalAlign=top;shape=mxgraph.webicons.json;gradientColor=#DFDEDE" vertex="1" parent="1">
          <mxGeometry x="202" y="817" width="87.7" height="90" as="geometry" />
        </mxCell>
        <mxCell id="CQitvJXa9ZDl-KHa1buW-128" value="" style="sketch=0;pointerEvents=1;shadow=0;dashed=0;html=1;strokeColor=none;fillColor=#505050;labelPosition=center;verticalLabelPosition=bottom;verticalAlign=top;outlineConnect=0;align=center;shape=mxgraph.office.users.csv_file;" vertex="1" parent="1">
          <mxGeometry x="206" y="938" width="85" height="77" as="geometry" />
        </mxCell>
        <mxCell id="CQitvJXa9ZDl-KHa1buW-129" value="" style="sketch=0;pointerEvents=1;shadow=0;dashed=0;html=1;strokeColor=none;fillColor=#505050;labelPosition=center;verticalLabelPosition=bottom;verticalAlign=top;outlineConnect=0;align=center;shape=mxgraph.office.users.csv_file;" vertex="1" parent="1">
          <mxGeometry x="206.7" y="1043" width="85" height="77" as="geometry" />
        </mxCell>
        <mxCell id="CQitvJXa9ZDl-KHa1buW-131" value="" style="rounded=0;whiteSpace=wrap;html=1;" vertex="1" parent="1">
          <mxGeometry x="476" y="244" width="200" height="888" as="geometry" />
        </mxCell>
        <mxCell id="CQitvJXa9ZDl-KHa1buW-132" value="covid_features" style="shape=table;startSize=30;container=1;collapsible=0;childLayout=tableLayout;strokeColor=default;fontSize=16;" vertex="1" parent="1">
          <mxGeometry x="490" y="272" width="139" height="90.75" as="geometry" />
        </mxCell>
        <mxCell id="CQitvJXa9ZDl-KHa1buW-133" value="" style="shape=tableRow;horizontal=0;startSize=0;swimlaneHead=0;swimlaneBody=0;strokeColor=inherit;top=0;left=0;bottom=0;right=0;collapsible=0;dropTarget=0;fillColor=none;points=[[0,0.5],[1,0.5]];portConstraint=eastwest;fontSize=16;" vertex="1" parent="CQitvJXa9ZDl-KHa1buW-132">
          <mxGeometry y="30" width="139" height="20" as="geometry" />
        </mxCell>
        <mxCell id="CQitvJXa9ZDl-KHa1buW-134" value="" style="shape=partialRectangle;html=1;whiteSpace=wrap;connectable=0;strokeColor=inherit;overflow=hidden;fillColor=none;top=0;left=0;bottom=0;right=0;pointerEvents=1;fontSize=16;" vertex="1" parent="CQitvJXa9ZDl-KHa1buW-133">
          <mxGeometry width="45" height="20" as="geometry">
            <mxRectangle width="45" height="20" as="alternateBounds" />
          </mxGeometry>
        </mxCell>
        <mxCell id="CQitvJXa9ZDl-KHa1buW-135" value="" style="shape=partialRectangle;html=1;whiteSpace=wrap;connectable=0;strokeColor=inherit;overflow=hidden;fillColor=none;top=0;left=0;bottom=0;right=0;pointerEvents=1;fontSize=16;" vertex="1" parent="CQitvJXa9ZDl-KHa1buW-133">
          <mxGeometry x="45" width="49" height="20" as="geometry">
            <mxRectangle width="49" height="20" as="alternateBounds" />
          </mxGeometry>
        </mxCell>
        <mxCell id="CQitvJXa9ZDl-KHa1buW-136" value="" style="shape=partialRectangle;html=1;whiteSpace=wrap;connectable=0;strokeColor=inherit;overflow=hidden;fillColor=none;top=0;left=0;bottom=0;right=0;pointerEvents=1;fontSize=16;" vertex="1" parent="CQitvJXa9ZDl-KHa1buW-133">
          <mxGeometry x="94" width="45" height="20" as="geometry">
            <mxRectangle width="45" height="20" as="alternateBounds" />
          </mxGeometry>
        </mxCell>
        <mxCell id="CQitvJXa9ZDl-KHa1buW-137" value="" style="shape=tableRow;horizontal=0;startSize=0;swimlaneHead=0;swimlaneBody=0;strokeColor=inherit;top=0;left=0;bottom=0;right=0;collapsible=0;dropTarget=0;fillColor=none;points=[[0,0.5],[1,0.5]];portConstraint=eastwest;fontSize=16;" vertex="1" parent="CQitvJXa9ZDl-KHa1buW-132">
          <mxGeometry y="50" width="139" height="21" as="geometry" />
        </mxCell>
        <mxCell id="CQitvJXa9ZDl-KHa1buW-138" value="" style="shape=partialRectangle;html=1;whiteSpace=wrap;connectable=0;strokeColor=inherit;overflow=hidden;fillColor=none;top=0;left=0;bottom=0;right=0;pointerEvents=1;fontSize=16;" vertex="1" parent="CQitvJXa9ZDl-KHa1buW-137">
          <mxGeometry width="45" height="21" as="geometry">
            <mxRectangle width="45" height="21" as="alternateBounds" />
          </mxGeometry>
        </mxCell>
        <mxCell id="CQitvJXa9ZDl-KHa1buW-139" value="" style="shape=partialRectangle;html=1;whiteSpace=wrap;connectable=0;strokeColor=inherit;overflow=hidden;fillColor=none;top=0;left=0;bottom=0;right=0;pointerEvents=1;fontSize=16;" vertex="1" parent="CQitvJXa9ZDl-KHa1buW-137">
          <mxGeometry x="45" width="49" height="21" as="geometry">
            <mxRectangle width="49" height="21" as="alternateBounds" />
          </mxGeometry>
        </mxCell>
        <mxCell id="CQitvJXa9ZDl-KHa1buW-140" value="" style="shape=partialRectangle;html=1;whiteSpace=wrap;connectable=0;strokeColor=inherit;overflow=hidden;fillColor=none;top=0;left=0;bottom=0;right=0;pointerEvents=1;fontSize=16;" vertex="1" parent="CQitvJXa9ZDl-KHa1buW-137">
          <mxGeometry x="94" width="45" height="21" as="geometry">
            <mxRectangle width="45" height="21" as="alternateBounds" />
          </mxGeometry>
        </mxCell>
        <mxCell id="CQitvJXa9ZDl-KHa1buW-141" value="" style="shape=tableRow;horizontal=0;startSize=0;swimlaneHead=0;swimlaneBody=0;strokeColor=inherit;top=0;left=0;bottom=0;right=0;collapsible=0;dropTarget=0;fillColor=none;points=[[0,0.5],[1,0.5]];portConstraint=eastwest;fontSize=16;" vertex="1" parent="CQitvJXa9ZDl-KHa1buW-132">
          <mxGeometry y="71" width="139" height="20" as="geometry" />
        </mxCell>
        <mxCell id="CQitvJXa9ZDl-KHa1buW-142" value="" style="shape=partialRectangle;html=1;whiteSpace=wrap;connectable=0;strokeColor=inherit;overflow=hidden;fillColor=none;top=0;left=0;bottom=0;right=0;pointerEvents=1;fontSize=16;" vertex="1" parent="CQitvJXa9ZDl-KHa1buW-141">
          <mxGeometry width="45" height="20" as="geometry">
            <mxRectangle width="45" height="20" as="alternateBounds" />
          </mxGeometry>
        </mxCell>
        <mxCell id="CQitvJXa9ZDl-KHa1buW-143" value="" style="shape=partialRectangle;html=1;whiteSpace=wrap;connectable=0;strokeColor=inherit;overflow=hidden;fillColor=none;top=0;left=0;bottom=0;right=0;pointerEvents=1;fontSize=16;" vertex="1" parent="CQitvJXa9ZDl-KHa1buW-141">
          <mxGeometry x="45" width="49" height="20" as="geometry">
            <mxRectangle width="49" height="20" as="alternateBounds" />
          </mxGeometry>
        </mxCell>
        <mxCell id="CQitvJXa9ZDl-KHa1buW-144" value="" style="shape=partialRectangle;html=1;whiteSpace=wrap;connectable=0;strokeColor=inherit;overflow=hidden;fillColor=none;top=0;left=0;bottom=0;right=0;pointerEvents=1;fontSize=16;" vertex="1" parent="CQitvJXa9ZDl-KHa1buW-141">
          <mxGeometry x="94" width="45" height="20" as="geometry">
            <mxRectangle width="45" height="20" as="alternateBounds" />
          </mxGeometry>
        </mxCell>
        <mxCell id="CQitvJXa9ZDl-KHa1buW-145" value="business" style="shape=table;startSize=30;container=1;collapsible=0;childLayout=tableLayout;strokeColor=default;fontSize=16;" vertex="1" parent="1">
          <mxGeometry x="489" y="385" width="139" height="90.75" as="geometry" />
        </mxCell>
        <mxCell id="CQitvJXa9ZDl-KHa1buW-146" value="" style="shape=tableRow;horizontal=0;startSize=0;swimlaneHead=0;swimlaneBody=0;strokeColor=inherit;top=0;left=0;bottom=0;right=0;collapsible=0;dropTarget=0;fillColor=none;points=[[0,0.5],[1,0.5]];portConstraint=eastwest;fontSize=16;" vertex="1" parent="CQitvJXa9ZDl-KHa1buW-145">
          <mxGeometry y="30" width="139" height="20" as="geometry" />
        </mxCell>
        <mxCell id="CQitvJXa9ZDl-KHa1buW-147" value="" style="shape=partialRectangle;html=1;whiteSpace=wrap;connectable=0;strokeColor=inherit;overflow=hidden;fillColor=none;top=0;left=0;bottom=0;right=0;pointerEvents=1;fontSize=16;" vertex="1" parent="CQitvJXa9ZDl-KHa1buW-146">
          <mxGeometry width="45" height="20" as="geometry">
            <mxRectangle width="45" height="20" as="alternateBounds" />
          </mxGeometry>
        </mxCell>
        <mxCell id="CQitvJXa9ZDl-KHa1buW-148" value="" style="shape=partialRectangle;html=1;whiteSpace=wrap;connectable=0;strokeColor=inherit;overflow=hidden;fillColor=none;top=0;left=0;bottom=0;right=0;pointerEvents=1;fontSize=16;" vertex="1" parent="CQitvJXa9ZDl-KHa1buW-146">
          <mxGeometry x="45" width="49" height="20" as="geometry">
            <mxRectangle width="49" height="20" as="alternateBounds" />
          </mxGeometry>
        </mxCell>
        <mxCell id="CQitvJXa9ZDl-KHa1buW-149" value="" style="shape=partialRectangle;html=1;whiteSpace=wrap;connectable=0;strokeColor=inherit;overflow=hidden;fillColor=none;top=0;left=0;bottom=0;right=0;pointerEvents=1;fontSize=16;" vertex="1" parent="CQitvJXa9ZDl-KHa1buW-146">
          <mxGeometry x="94" width="45" height="20" as="geometry">
            <mxRectangle width="45" height="20" as="alternateBounds" />
          </mxGeometry>
        </mxCell>
        <mxCell id="CQitvJXa9ZDl-KHa1buW-150" value="" style="shape=tableRow;horizontal=0;startSize=0;swimlaneHead=0;swimlaneBody=0;strokeColor=inherit;top=0;left=0;bottom=0;right=0;collapsible=0;dropTarget=0;fillColor=none;points=[[0,0.5],[1,0.5]];portConstraint=eastwest;fontSize=16;" vertex="1" parent="CQitvJXa9ZDl-KHa1buW-145">
          <mxGeometry y="50" width="139" height="21" as="geometry" />
        </mxCell>
        <mxCell id="CQitvJXa9ZDl-KHa1buW-151" value="" style="shape=partialRectangle;html=1;whiteSpace=wrap;connectable=0;strokeColor=inherit;overflow=hidden;fillColor=none;top=0;left=0;bottom=0;right=0;pointerEvents=1;fontSize=16;" vertex="1" parent="CQitvJXa9ZDl-KHa1buW-150">
          <mxGeometry width="45" height="21" as="geometry">
            <mxRectangle width="45" height="21" as="alternateBounds" />
          </mxGeometry>
        </mxCell>
        <mxCell id="CQitvJXa9ZDl-KHa1buW-152" value="" style="shape=partialRectangle;html=1;whiteSpace=wrap;connectable=0;strokeColor=inherit;overflow=hidden;fillColor=none;top=0;left=0;bottom=0;right=0;pointerEvents=1;fontSize=16;" vertex="1" parent="CQitvJXa9ZDl-KHa1buW-150">
          <mxGeometry x="45" width="49" height="21" as="geometry">
            <mxRectangle width="49" height="21" as="alternateBounds" />
          </mxGeometry>
        </mxCell>
        <mxCell id="CQitvJXa9ZDl-KHa1buW-153" value="" style="shape=partialRectangle;html=1;whiteSpace=wrap;connectable=0;strokeColor=inherit;overflow=hidden;fillColor=none;top=0;left=0;bottom=0;right=0;pointerEvents=1;fontSize=16;" vertex="1" parent="CQitvJXa9ZDl-KHa1buW-150">
          <mxGeometry x="94" width="45" height="21" as="geometry">
            <mxRectangle width="45" height="21" as="alternateBounds" />
          </mxGeometry>
        </mxCell>
        <mxCell id="CQitvJXa9ZDl-KHa1buW-154" value="" style="shape=tableRow;horizontal=0;startSize=0;swimlaneHead=0;swimlaneBody=0;strokeColor=inherit;top=0;left=0;bottom=0;right=0;collapsible=0;dropTarget=0;fillColor=none;points=[[0,0.5],[1,0.5]];portConstraint=eastwest;fontSize=16;" vertex="1" parent="CQitvJXa9ZDl-KHa1buW-145">
          <mxGeometry y="71" width="139" height="20" as="geometry" />
        </mxCell>
        <mxCell id="CQitvJXa9ZDl-KHa1buW-155" value="" style="shape=partialRectangle;html=1;whiteSpace=wrap;connectable=0;strokeColor=inherit;overflow=hidden;fillColor=none;top=0;left=0;bottom=0;right=0;pointerEvents=1;fontSize=16;" vertex="1" parent="CQitvJXa9ZDl-KHa1buW-154">
          <mxGeometry width="45" height="20" as="geometry">
            <mxRectangle width="45" height="20" as="alternateBounds" />
          </mxGeometry>
        </mxCell>
        <mxCell id="CQitvJXa9ZDl-KHa1buW-156" value="" style="shape=partialRectangle;html=1;whiteSpace=wrap;connectable=0;strokeColor=inherit;overflow=hidden;fillColor=none;top=0;left=0;bottom=0;right=0;pointerEvents=1;fontSize=16;" vertex="1" parent="CQitvJXa9ZDl-KHa1buW-154">
          <mxGeometry x="45" width="49" height="20" as="geometry">
            <mxRectangle width="49" height="20" as="alternateBounds" />
          </mxGeometry>
        </mxCell>
        <mxCell id="CQitvJXa9ZDl-KHa1buW-157" value="" style="shape=partialRectangle;html=1;whiteSpace=wrap;connectable=0;strokeColor=inherit;overflow=hidden;fillColor=none;top=0;left=0;bottom=0;right=0;pointerEvents=1;fontSize=16;" vertex="1" parent="CQitvJXa9ZDl-KHa1buW-154">
          <mxGeometry x="94" width="45" height="20" as="geometry">
            <mxRectangle width="45" height="20" as="alternateBounds" />
          </mxGeometry>
        </mxCell>
        <mxCell id="CQitvJXa9ZDl-KHa1buW-158" value="checkin" style="shape=table;startSize=30;container=1;collapsible=0;childLayout=tableLayout;strokeColor=default;fontSize=16;" vertex="1" parent="1">
          <mxGeometry x="490" y="496" width="139" height="90.75" as="geometry" />
        </mxCell>
        <mxCell id="CQitvJXa9ZDl-KHa1buW-159" value="" style="shape=tableRow;horizontal=0;startSize=0;swimlaneHead=0;swimlaneBody=0;strokeColor=inherit;top=0;left=0;bottom=0;right=0;collapsible=0;dropTarget=0;fillColor=none;points=[[0,0.5],[1,0.5]];portConstraint=eastwest;fontSize=16;" vertex="1" parent="CQitvJXa9ZDl-KHa1buW-158">
          <mxGeometry y="30" width="139" height="20" as="geometry" />
        </mxCell>
        <mxCell id="CQitvJXa9ZDl-KHa1buW-160" value="" style="shape=partialRectangle;html=1;whiteSpace=wrap;connectable=0;strokeColor=inherit;overflow=hidden;fillColor=none;top=0;left=0;bottom=0;right=0;pointerEvents=1;fontSize=16;" vertex="1" parent="CQitvJXa9ZDl-KHa1buW-159">
          <mxGeometry width="45" height="20" as="geometry">
            <mxRectangle width="45" height="20" as="alternateBounds" />
          </mxGeometry>
        </mxCell>
        <mxCell id="CQitvJXa9ZDl-KHa1buW-161" value="" style="shape=partialRectangle;html=1;whiteSpace=wrap;connectable=0;strokeColor=inherit;overflow=hidden;fillColor=none;top=0;left=0;bottom=0;right=0;pointerEvents=1;fontSize=16;" vertex="1" parent="CQitvJXa9ZDl-KHa1buW-159">
          <mxGeometry x="45" width="49" height="20" as="geometry">
            <mxRectangle width="49" height="20" as="alternateBounds" />
          </mxGeometry>
        </mxCell>
        <mxCell id="CQitvJXa9ZDl-KHa1buW-162" value="" style="shape=partialRectangle;html=1;whiteSpace=wrap;connectable=0;strokeColor=inherit;overflow=hidden;fillColor=none;top=0;left=0;bottom=0;right=0;pointerEvents=1;fontSize=16;" vertex="1" parent="CQitvJXa9ZDl-KHa1buW-159">
          <mxGeometry x="94" width="45" height="20" as="geometry">
            <mxRectangle width="45" height="20" as="alternateBounds" />
          </mxGeometry>
        </mxCell>
        <mxCell id="CQitvJXa9ZDl-KHa1buW-163" value="" style="shape=tableRow;horizontal=0;startSize=0;swimlaneHead=0;swimlaneBody=0;strokeColor=inherit;top=0;left=0;bottom=0;right=0;collapsible=0;dropTarget=0;fillColor=none;points=[[0,0.5],[1,0.5]];portConstraint=eastwest;fontSize=16;" vertex="1" parent="CQitvJXa9ZDl-KHa1buW-158">
          <mxGeometry y="50" width="139" height="21" as="geometry" />
        </mxCell>
        <mxCell id="CQitvJXa9ZDl-KHa1buW-164" value="" style="shape=partialRectangle;html=1;whiteSpace=wrap;connectable=0;strokeColor=inherit;overflow=hidden;fillColor=none;top=0;left=0;bottom=0;right=0;pointerEvents=1;fontSize=16;" vertex="1" parent="CQitvJXa9ZDl-KHa1buW-163">
          <mxGeometry width="45" height="21" as="geometry">
            <mxRectangle width="45" height="21" as="alternateBounds" />
          </mxGeometry>
        </mxCell>
        <mxCell id="CQitvJXa9ZDl-KHa1buW-165" value="" style="shape=partialRectangle;html=1;whiteSpace=wrap;connectable=0;strokeColor=inherit;overflow=hidden;fillColor=none;top=0;left=0;bottom=0;right=0;pointerEvents=1;fontSize=16;" vertex="1" parent="CQitvJXa9ZDl-KHa1buW-163">
          <mxGeometry x="45" width="49" height="21" as="geometry">
            <mxRectangle width="49" height="21" as="alternateBounds" />
          </mxGeometry>
        </mxCell>
        <mxCell id="CQitvJXa9ZDl-KHa1buW-166" value="" style="shape=partialRectangle;html=1;whiteSpace=wrap;connectable=0;strokeColor=inherit;overflow=hidden;fillColor=none;top=0;left=0;bottom=0;right=0;pointerEvents=1;fontSize=16;" vertex="1" parent="CQitvJXa9ZDl-KHa1buW-163">
          <mxGeometry x="94" width="45" height="21" as="geometry">
            <mxRectangle width="45" height="21" as="alternateBounds" />
          </mxGeometry>
        </mxCell>
        <mxCell id="CQitvJXa9ZDl-KHa1buW-167" value="" style="shape=tableRow;horizontal=0;startSize=0;swimlaneHead=0;swimlaneBody=0;strokeColor=inherit;top=0;left=0;bottom=0;right=0;collapsible=0;dropTarget=0;fillColor=none;points=[[0,0.5],[1,0.5]];portConstraint=eastwest;fontSize=16;" vertex="1" parent="CQitvJXa9ZDl-KHa1buW-158">
          <mxGeometry y="71" width="139" height="20" as="geometry" />
        </mxCell>
        <mxCell id="CQitvJXa9ZDl-KHa1buW-168" value="" style="shape=partialRectangle;html=1;whiteSpace=wrap;connectable=0;strokeColor=inherit;overflow=hidden;fillColor=none;top=0;left=0;bottom=0;right=0;pointerEvents=1;fontSize=16;" vertex="1" parent="CQitvJXa9ZDl-KHa1buW-167">
          <mxGeometry width="45" height="20" as="geometry">
            <mxRectangle width="45" height="20" as="alternateBounds" />
          </mxGeometry>
        </mxCell>
        <mxCell id="CQitvJXa9ZDl-KHa1buW-169" value="" style="shape=partialRectangle;html=1;whiteSpace=wrap;connectable=0;strokeColor=inherit;overflow=hidden;fillColor=none;top=0;left=0;bottom=0;right=0;pointerEvents=1;fontSize=16;" vertex="1" parent="CQitvJXa9ZDl-KHa1buW-167">
          <mxGeometry x="45" width="49" height="20" as="geometry">
            <mxRectangle width="49" height="20" as="alternateBounds" />
          </mxGeometry>
        </mxCell>
        <mxCell id="CQitvJXa9ZDl-KHa1buW-170" value="" style="shape=partialRectangle;html=1;whiteSpace=wrap;connectable=0;strokeColor=inherit;overflow=hidden;fillColor=none;top=0;left=0;bottom=0;right=0;pointerEvents=1;fontSize=16;" vertex="1" parent="CQitvJXa9ZDl-KHa1buW-167">
          <mxGeometry x="94" width="45" height="20" as="geometry">
            <mxRectangle width="45" height="20" as="alternateBounds" />
          </mxGeometry>
        </mxCell>
        <mxCell id="CQitvJXa9ZDl-KHa1buW-171" value="review" style="shape=table;startSize=30;container=1;collapsible=0;childLayout=tableLayout;strokeColor=default;fontSize=16;" vertex="1" parent="1">
          <mxGeometry x="490" y="601" width="139" height="90.75" as="geometry" />
        </mxCell>
        <mxCell id="CQitvJXa9ZDl-KHa1buW-172" value="" style="shape=tableRow;horizontal=0;startSize=0;swimlaneHead=0;swimlaneBody=0;strokeColor=inherit;top=0;left=0;bottom=0;right=0;collapsible=0;dropTarget=0;fillColor=none;points=[[0,0.5],[1,0.5]];portConstraint=eastwest;fontSize=16;" vertex="1" parent="CQitvJXa9ZDl-KHa1buW-171">
          <mxGeometry y="30" width="139" height="20" as="geometry" />
        </mxCell>
        <mxCell id="CQitvJXa9ZDl-KHa1buW-173" value="" style="shape=partialRectangle;html=1;whiteSpace=wrap;connectable=0;strokeColor=inherit;overflow=hidden;fillColor=none;top=0;left=0;bottom=0;right=0;pointerEvents=1;fontSize=16;" vertex="1" parent="CQitvJXa9ZDl-KHa1buW-172">
          <mxGeometry width="45" height="20" as="geometry">
            <mxRectangle width="45" height="20" as="alternateBounds" />
          </mxGeometry>
        </mxCell>
        <mxCell id="CQitvJXa9ZDl-KHa1buW-174" value="" style="shape=partialRectangle;html=1;whiteSpace=wrap;connectable=0;strokeColor=inherit;overflow=hidden;fillColor=none;top=0;left=0;bottom=0;right=0;pointerEvents=1;fontSize=16;" vertex="1" parent="CQitvJXa9ZDl-KHa1buW-172">
          <mxGeometry x="45" width="49" height="20" as="geometry">
            <mxRectangle width="49" height="20" as="alternateBounds" />
          </mxGeometry>
        </mxCell>
        <mxCell id="CQitvJXa9ZDl-KHa1buW-175" value="" style="shape=partialRectangle;html=1;whiteSpace=wrap;connectable=0;strokeColor=inherit;overflow=hidden;fillColor=none;top=0;left=0;bottom=0;right=0;pointerEvents=1;fontSize=16;" vertex="1" parent="CQitvJXa9ZDl-KHa1buW-172">
          <mxGeometry x="94" width="45" height="20" as="geometry">
            <mxRectangle width="45" height="20" as="alternateBounds" />
          </mxGeometry>
        </mxCell>
        <mxCell id="CQitvJXa9ZDl-KHa1buW-176" value="" style="shape=tableRow;horizontal=0;startSize=0;swimlaneHead=0;swimlaneBody=0;strokeColor=inherit;top=0;left=0;bottom=0;right=0;collapsible=0;dropTarget=0;fillColor=none;points=[[0,0.5],[1,0.5]];portConstraint=eastwest;fontSize=16;" vertex="1" parent="CQitvJXa9ZDl-KHa1buW-171">
          <mxGeometry y="50" width="139" height="21" as="geometry" />
        </mxCell>
        <mxCell id="CQitvJXa9ZDl-KHa1buW-177" value="" style="shape=partialRectangle;html=1;whiteSpace=wrap;connectable=0;strokeColor=inherit;overflow=hidden;fillColor=none;top=0;left=0;bottom=0;right=0;pointerEvents=1;fontSize=16;" vertex="1" parent="CQitvJXa9ZDl-KHa1buW-176">
          <mxGeometry width="45" height="21" as="geometry">
            <mxRectangle width="45" height="21" as="alternateBounds" />
          </mxGeometry>
        </mxCell>
        <mxCell id="CQitvJXa9ZDl-KHa1buW-178" value="" style="shape=partialRectangle;html=1;whiteSpace=wrap;connectable=0;strokeColor=inherit;overflow=hidden;fillColor=none;top=0;left=0;bottom=0;right=0;pointerEvents=1;fontSize=16;" vertex="1" parent="CQitvJXa9ZDl-KHa1buW-176">
          <mxGeometry x="45" width="49" height="21" as="geometry">
            <mxRectangle width="49" height="21" as="alternateBounds" />
          </mxGeometry>
        </mxCell>
        <mxCell id="CQitvJXa9ZDl-KHa1buW-179" value="" style="shape=partialRectangle;html=1;whiteSpace=wrap;connectable=0;strokeColor=inherit;overflow=hidden;fillColor=none;top=0;left=0;bottom=0;right=0;pointerEvents=1;fontSize=16;" vertex="1" parent="CQitvJXa9ZDl-KHa1buW-176">
          <mxGeometry x="94" width="45" height="21" as="geometry">
            <mxRectangle width="45" height="21" as="alternateBounds" />
          </mxGeometry>
        </mxCell>
        <mxCell id="CQitvJXa9ZDl-KHa1buW-180" value="" style="shape=tableRow;horizontal=0;startSize=0;swimlaneHead=0;swimlaneBody=0;strokeColor=inherit;top=0;left=0;bottom=0;right=0;collapsible=0;dropTarget=0;fillColor=none;points=[[0,0.5],[1,0.5]];portConstraint=eastwest;fontSize=16;" vertex="1" parent="CQitvJXa9ZDl-KHa1buW-171">
          <mxGeometry y="71" width="139" height="20" as="geometry" />
        </mxCell>
        <mxCell id="CQitvJXa9ZDl-KHa1buW-181" value="" style="shape=partialRectangle;html=1;whiteSpace=wrap;connectable=0;strokeColor=inherit;overflow=hidden;fillColor=none;top=0;left=0;bottom=0;right=0;pointerEvents=1;fontSize=16;" vertex="1" parent="CQitvJXa9ZDl-KHa1buW-180">
          <mxGeometry width="45" height="20" as="geometry">
            <mxRectangle width="45" height="20" as="alternateBounds" />
          </mxGeometry>
        </mxCell>
        <mxCell id="CQitvJXa9ZDl-KHa1buW-182" value="" style="shape=partialRectangle;html=1;whiteSpace=wrap;connectable=0;strokeColor=inherit;overflow=hidden;fillColor=none;top=0;left=0;bottom=0;right=0;pointerEvents=1;fontSize=16;" vertex="1" parent="CQitvJXa9ZDl-KHa1buW-180">
          <mxGeometry x="45" width="49" height="20" as="geometry">
            <mxRectangle width="49" height="20" as="alternateBounds" />
          </mxGeometry>
        </mxCell>
        <mxCell id="CQitvJXa9ZDl-KHa1buW-183" value="" style="shape=partialRectangle;html=1;whiteSpace=wrap;connectable=0;strokeColor=inherit;overflow=hidden;fillColor=none;top=0;left=0;bottom=0;right=0;pointerEvents=1;fontSize=16;" vertex="1" parent="CQitvJXa9ZDl-KHa1buW-180">
          <mxGeometry x="94" width="45" height="20" as="geometry">
            <mxRectangle width="45" height="20" as="alternateBounds" />
          </mxGeometry>
        </mxCell>
        <mxCell id="CQitvJXa9ZDl-KHa1buW-184" value="user" style="shape=table;startSize=30;container=1;collapsible=0;childLayout=tableLayout;strokeColor=default;fontSize=16;" vertex="1" parent="1">
          <mxGeometry x="490" y="819" width="139" height="90.75" as="geometry" />
        </mxCell>
        <mxCell id="CQitvJXa9ZDl-KHa1buW-185" value="" style="shape=tableRow;horizontal=0;startSize=0;swimlaneHead=0;swimlaneBody=0;strokeColor=inherit;top=0;left=0;bottom=0;right=0;collapsible=0;dropTarget=0;fillColor=none;points=[[0,0.5],[1,0.5]];portConstraint=eastwest;fontSize=16;" vertex="1" parent="CQitvJXa9ZDl-KHa1buW-184">
          <mxGeometry y="30" width="139" height="20" as="geometry" />
        </mxCell>
        <mxCell id="CQitvJXa9ZDl-KHa1buW-186" value="" style="shape=partialRectangle;html=1;whiteSpace=wrap;connectable=0;strokeColor=inherit;overflow=hidden;fillColor=none;top=0;left=0;bottom=0;right=0;pointerEvents=1;fontSize=16;" vertex="1" parent="CQitvJXa9ZDl-KHa1buW-185">
          <mxGeometry width="45" height="20" as="geometry">
            <mxRectangle width="45" height="20" as="alternateBounds" />
          </mxGeometry>
        </mxCell>
        <mxCell id="CQitvJXa9ZDl-KHa1buW-187" value="" style="shape=partialRectangle;html=1;whiteSpace=wrap;connectable=0;strokeColor=inherit;overflow=hidden;fillColor=none;top=0;left=0;bottom=0;right=0;pointerEvents=1;fontSize=16;" vertex="1" parent="CQitvJXa9ZDl-KHa1buW-185">
          <mxGeometry x="45" width="49" height="20" as="geometry">
            <mxRectangle width="49" height="20" as="alternateBounds" />
          </mxGeometry>
        </mxCell>
        <mxCell id="CQitvJXa9ZDl-KHa1buW-188" value="" style="shape=partialRectangle;html=1;whiteSpace=wrap;connectable=0;strokeColor=inherit;overflow=hidden;fillColor=none;top=0;left=0;bottom=0;right=0;pointerEvents=1;fontSize=16;" vertex="1" parent="CQitvJXa9ZDl-KHa1buW-185">
          <mxGeometry x="94" width="45" height="20" as="geometry">
            <mxRectangle width="45" height="20" as="alternateBounds" />
          </mxGeometry>
        </mxCell>
        <mxCell id="CQitvJXa9ZDl-KHa1buW-189" value="" style="shape=tableRow;horizontal=0;startSize=0;swimlaneHead=0;swimlaneBody=0;strokeColor=inherit;top=0;left=0;bottom=0;right=0;collapsible=0;dropTarget=0;fillColor=none;points=[[0,0.5],[1,0.5]];portConstraint=eastwest;fontSize=16;" vertex="1" parent="CQitvJXa9ZDl-KHa1buW-184">
          <mxGeometry y="50" width="139" height="21" as="geometry" />
        </mxCell>
        <mxCell id="CQitvJXa9ZDl-KHa1buW-190" value="" style="shape=partialRectangle;html=1;whiteSpace=wrap;connectable=0;strokeColor=inherit;overflow=hidden;fillColor=none;top=0;left=0;bottom=0;right=0;pointerEvents=1;fontSize=16;" vertex="1" parent="CQitvJXa9ZDl-KHa1buW-189">
          <mxGeometry width="45" height="21" as="geometry">
            <mxRectangle width="45" height="21" as="alternateBounds" />
          </mxGeometry>
        </mxCell>
        <mxCell id="CQitvJXa9ZDl-KHa1buW-191" value="" style="shape=partialRectangle;html=1;whiteSpace=wrap;connectable=0;strokeColor=inherit;overflow=hidden;fillColor=none;top=0;left=0;bottom=0;right=0;pointerEvents=1;fontSize=16;" vertex="1" parent="CQitvJXa9ZDl-KHa1buW-189">
          <mxGeometry x="45" width="49" height="21" as="geometry">
            <mxRectangle width="49" height="21" as="alternateBounds" />
          </mxGeometry>
        </mxCell>
        <mxCell id="CQitvJXa9ZDl-KHa1buW-192" value="" style="shape=partialRectangle;html=1;whiteSpace=wrap;connectable=0;strokeColor=inherit;overflow=hidden;fillColor=none;top=0;left=0;bottom=0;right=0;pointerEvents=1;fontSize=16;" vertex="1" parent="CQitvJXa9ZDl-KHa1buW-189">
          <mxGeometry x="94" width="45" height="21" as="geometry">
            <mxRectangle width="45" height="21" as="alternateBounds" />
          </mxGeometry>
        </mxCell>
        <mxCell id="CQitvJXa9ZDl-KHa1buW-193" value="" style="shape=tableRow;horizontal=0;startSize=0;swimlaneHead=0;swimlaneBody=0;strokeColor=inherit;top=0;left=0;bottom=0;right=0;collapsible=0;dropTarget=0;fillColor=none;points=[[0,0.5],[1,0.5]];portConstraint=eastwest;fontSize=16;" vertex="1" parent="CQitvJXa9ZDl-KHa1buW-184">
          <mxGeometry y="71" width="139" height="20" as="geometry" />
        </mxCell>
        <mxCell id="CQitvJXa9ZDl-KHa1buW-194" value="" style="shape=partialRectangle;html=1;whiteSpace=wrap;connectable=0;strokeColor=inherit;overflow=hidden;fillColor=none;top=0;left=0;bottom=0;right=0;pointerEvents=1;fontSize=16;" vertex="1" parent="CQitvJXa9ZDl-KHa1buW-193">
          <mxGeometry width="45" height="20" as="geometry">
            <mxRectangle width="45" height="20" as="alternateBounds" />
          </mxGeometry>
        </mxCell>
        <mxCell id="CQitvJXa9ZDl-KHa1buW-195" value="" style="shape=partialRectangle;html=1;whiteSpace=wrap;connectable=0;strokeColor=inherit;overflow=hidden;fillColor=none;top=0;left=0;bottom=0;right=0;pointerEvents=1;fontSize=16;" vertex="1" parent="CQitvJXa9ZDl-KHa1buW-193">
          <mxGeometry x="45" width="49" height="20" as="geometry">
            <mxRectangle width="49" height="20" as="alternateBounds" />
          </mxGeometry>
        </mxCell>
        <mxCell id="CQitvJXa9ZDl-KHa1buW-196" value="" style="shape=partialRectangle;html=1;whiteSpace=wrap;connectable=0;strokeColor=inherit;overflow=hidden;fillColor=none;top=0;left=0;bottom=0;right=0;pointerEvents=1;fontSize=16;" vertex="1" parent="CQitvJXa9ZDl-KHa1buW-193">
          <mxGeometry x="94" width="45" height="20" as="geometry">
            <mxRectangle width="45" height="20" as="alternateBounds" />
          </mxGeometry>
        </mxCell>
        <mxCell id="CQitvJXa9ZDl-KHa1buW-197" value="precipitation" style="shape=table;startSize=30;container=1;collapsible=0;childLayout=tableLayout;strokeColor=default;fontSize=16;" vertex="1" parent="1">
          <mxGeometry x="486" y="924.25" width="139" height="90.75" as="geometry" />
        </mxCell>
        <mxCell id="CQitvJXa9ZDl-KHa1buW-198" value="" style="shape=tableRow;horizontal=0;startSize=0;swimlaneHead=0;swimlaneBody=0;strokeColor=inherit;top=0;left=0;bottom=0;right=0;collapsible=0;dropTarget=0;fillColor=none;points=[[0,0.5],[1,0.5]];portConstraint=eastwest;fontSize=16;" vertex="1" parent="CQitvJXa9ZDl-KHa1buW-197">
          <mxGeometry y="30" width="139" height="20" as="geometry" />
        </mxCell>
        <mxCell id="CQitvJXa9ZDl-KHa1buW-199" value="" style="shape=partialRectangle;html=1;whiteSpace=wrap;connectable=0;strokeColor=inherit;overflow=hidden;fillColor=none;top=0;left=0;bottom=0;right=0;pointerEvents=1;fontSize=16;" vertex="1" parent="CQitvJXa9ZDl-KHa1buW-198">
          <mxGeometry width="45" height="20" as="geometry">
            <mxRectangle width="45" height="20" as="alternateBounds" />
          </mxGeometry>
        </mxCell>
        <mxCell id="CQitvJXa9ZDl-KHa1buW-200" value="" style="shape=partialRectangle;html=1;whiteSpace=wrap;connectable=0;strokeColor=inherit;overflow=hidden;fillColor=none;top=0;left=0;bottom=0;right=0;pointerEvents=1;fontSize=16;" vertex="1" parent="CQitvJXa9ZDl-KHa1buW-198">
          <mxGeometry x="45" width="49" height="20" as="geometry">
            <mxRectangle width="49" height="20" as="alternateBounds" />
          </mxGeometry>
        </mxCell>
        <mxCell id="CQitvJXa9ZDl-KHa1buW-201" value="" style="shape=partialRectangle;html=1;whiteSpace=wrap;connectable=0;strokeColor=inherit;overflow=hidden;fillColor=none;top=0;left=0;bottom=0;right=0;pointerEvents=1;fontSize=16;" vertex="1" parent="CQitvJXa9ZDl-KHa1buW-198">
          <mxGeometry x="94" width="45" height="20" as="geometry">
            <mxRectangle width="45" height="20" as="alternateBounds" />
          </mxGeometry>
        </mxCell>
        <mxCell id="CQitvJXa9ZDl-KHa1buW-202" value="" style="shape=tableRow;horizontal=0;startSize=0;swimlaneHead=0;swimlaneBody=0;strokeColor=inherit;top=0;left=0;bottom=0;right=0;collapsible=0;dropTarget=0;fillColor=none;points=[[0,0.5],[1,0.5]];portConstraint=eastwest;fontSize=16;" vertex="1" parent="CQitvJXa9ZDl-KHa1buW-197">
          <mxGeometry y="50" width="139" height="21" as="geometry" />
        </mxCell>
        <mxCell id="CQitvJXa9ZDl-KHa1buW-203" value="" style="shape=partialRectangle;html=1;whiteSpace=wrap;connectable=0;strokeColor=inherit;overflow=hidden;fillColor=none;top=0;left=0;bottom=0;right=0;pointerEvents=1;fontSize=16;" vertex="1" parent="CQitvJXa9ZDl-KHa1buW-202">
          <mxGeometry width="45" height="21" as="geometry">
            <mxRectangle width="45" height="21" as="alternateBounds" />
          </mxGeometry>
        </mxCell>
        <mxCell id="CQitvJXa9ZDl-KHa1buW-204" value="" style="shape=partialRectangle;html=1;whiteSpace=wrap;connectable=0;strokeColor=inherit;overflow=hidden;fillColor=none;top=0;left=0;bottom=0;right=0;pointerEvents=1;fontSize=16;" vertex="1" parent="CQitvJXa9ZDl-KHa1buW-202">
          <mxGeometry x="45" width="49" height="21" as="geometry">
            <mxRectangle width="49" height="21" as="alternateBounds" />
          </mxGeometry>
        </mxCell>
        <mxCell id="CQitvJXa9ZDl-KHa1buW-205" value="" style="shape=partialRectangle;html=1;whiteSpace=wrap;connectable=0;strokeColor=inherit;overflow=hidden;fillColor=none;top=0;left=0;bottom=0;right=0;pointerEvents=1;fontSize=16;" vertex="1" parent="CQitvJXa9ZDl-KHa1buW-202">
          <mxGeometry x="94" width="45" height="21" as="geometry">
            <mxRectangle width="45" height="21" as="alternateBounds" />
          </mxGeometry>
        </mxCell>
        <mxCell id="CQitvJXa9ZDl-KHa1buW-206" value="" style="shape=tableRow;horizontal=0;startSize=0;swimlaneHead=0;swimlaneBody=0;strokeColor=inherit;top=0;left=0;bottom=0;right=0;collapsible=0;dropTarget=0;fillColor=none;points=[[0,0.5],[1,0.5]];portConstraint=eastwest;fontSize=16;" vertex="1" parent="CQitvJXa9ZDl-KHa1buW-197">
          <mxGeometry y="71" width="139" height="20" as="geometry" />
        </mxCell>
        <mxCell id="CQitvJXa9ZDl-KHa1buW-207" value="" style="shape=partialRectangle;html=1;whiteSpace=wrap;connectable=0;strokeColor=inherit;overflow=hidden;fillColor=none;top=0;left=0;bottom=0;right=0;pointerEvents=1;fontSize=16;" vertex="1" parent="CQitvJXa9ZDl-KHa1buW-206">
          <mxGeometry width="45" height="20" as="geometry">
            <mxRectangle width="45" height="20" as="alternateBounds" />
          </mxGeometry>
        </mxCell>
        <mxCell id="CQitvJXa9ZDl-KHa1buW-208" value="" style="shape=partialRectangle;html=1;whiteSpace=wrap;connectable=0;strokeColor=inherit;overflow=hidden;fillColor=none;top=0;left=0;bottom=0;right=0;pointerEvents=1;fontSize=16;" vertex="1" parent="CQitvJXa9ZDl-KHa1buW-206">
          <mxGeometry x="45" width="49" height="20" as="geometry">
            <mxRectangle width="49" height="20" as="alternateBounds" />
          </mxGeometry>
        </mxCell>
        <mxCell id="CQitvJXa9ZDl-KHa1buW-209" value="" style="shape=partialRectangle;html=1;whiteSpace=wrap;connectable=0;strokeColor=inherit;overflow=hidden;fillColor=none;top=0;left=0;bottom=0;right=0;pointerEvents=1;fontSize=16;" vertex="1" parent="CQitvJXa9ZDl-KHa1buW-206">
          <mxGeometry x="94" width="45" height="20" as="geometry">
            <mxRectangle width="45" height="20" as="alternateBounds" />
          </mxGeometry>
        </mxCell>
        <mxCell id="CQitvJXa9ZDl-KHa1buW-210" value="temperature" style="shape=table;startSize=30;container=1;collapsible=0;childLayout=tableLayout;strokeColor=default;fontSize=16;" vertex="1" parent="1">
          <mxGeometry x="485" y="1029.25" width="139" height="90.75" as="geometry" />
        </mxCell>
        <mxCell id="CQitvJXa9ZDl-KHa1buW-211" value="" style="shape=tableRow;horizontal=0;startSize=0;swimlaneHead=0;swimlaneBody=0;strokeColor=inherit;top=0;left=0;bottom=0;right=0;collapsible=0;dropTarget=0;fillColor=none;points=[[0,0.5],[1,0.5]];portConstraint=eastwest;fontSize=16;" vertex="1" parent="CQitvJXa9ZDl-KHa1buW-210">
          <mxGeometry y="30" width="139" height="20" as="geometry" />
        </mxCell>
        <mxCell id="CQitvJXa9ZDl-KHa1buW-212" value="" style="shape=partialRectangle;html=1;whiteSpace=wrap;connectable=0;strokeColor=inherit;overflow=hidden;fillColor=none;top=0;left=0;bottom=0;right=0;pointerEvents=1;fontSize=16;" vertex="1" parent="CQitvJXa9ZDl-KHa1buW-211">
          <mxGeometry width="45" height="20" as="geometry">
            <mxRectangle width="45" height="20" as="alternateBounds" />
          </mxGeometry>
        </mxCell>
        <mxCell id="CQitvJXa9ZDl-KHa1buW-213" value="" style="shape=partialRectangle;html=1;whiteSpace=wrap;connectable=0;strokeColor=inherit;overflow=hidden;fillColor=none;top=0;left=0;bottom=0;right=0;pointerEvents=1;fontSize=16;" vertex="1" parent="CQitvJXa9ZDl-KHa1buW-211">
          <mxGeometry x="45" width="49" height="20" as="geometry">
            <mxRectangle width="49" height="20" as="alternateBounds" />
          </mxGeometry>
        </mxCell>
        <mxCell id="CQitvJXa9ZDl-KHa1buW-214" value="" style="shape=partialRectangle;html=1;whiteSpace=wrap;connectable=0;strokeColor=inherit;overflow=hidden;fillColor=none;top=0;left=0;bottom=0;right=0;pointerEvents=1;fontSize=16;" vertex="1" parent="CQitvJXa9ZDl-KHa1buW-211">
          <mxGeometry x="94" width="45" height="20" as="geometry">
            <mxRectangle width="45" height="20" as="alternateBounds" />
          </mxGeometry>
        </mxCell>
        <mxCell id="CQitvJXa9ZDl-KHa1buW-215" value="" style="shape=tableRow;horizontal=0;startSize=0;swimlaneHead=0;swimlaneBody=0;strokeColor=inherit;top=0;left=0;bottom=0;right=0;collapsible=0;dropTarget=0;fillColor=none;points=[[0,0.5],[1,0.5]];portConstraint=eastwest;fontSize=16;" vertex="1" parent="CQitvJXa9ZDl-KHa1buW-210">
          <mxGeometry y="50" width="139" height="21" as="geometry" />
        </mxCell>
        <mxCell id="CQitvJXa9ZDl-KHa1buW-216" value="" style="shape=partialRectangle;html=1;whiteSpace=wrap;connectable=0;strokeColor=inherit;overflow=hidden;fillColor=none;top=0;left=0;bottom=0;right=0;pointerEvents=1;fontSize=16;" vertex="1" parent="CQitvJXa9ZDl-KHa1buW-215">
          <mxGeometry width="45" height="21" as="geometry">
            <mxRectangle width="45" height="21" as="alternateBounds" />
          </mxGeometry>
        </mxCell>
        <mxCell id="CQitvJXa9ZDl-KHa1buW-217" value="" style="shape=partialRectangle;html=1;whiteSpace=wrap;connectable=0;strokeColor=inherit;overflow=hidden;fillColor=none;top=0;left=0;bottom=0;right=0;pointerEvents=1;fontSize=16;" vertex="1" parent="CQitvJXa9ZDl-KHa1buW-215">
          <mxGeometry x="45" width="49" height="21" as="geometry">
            <mxRectangle width="49" height="21" as="alternateBounds" />
          </mxGeometry>
        </mxCell>
        <mxCell id="CQitvJXa9ZDl-KHa1buW-218" value="" style="shape=partialRectangle;html=1;whiteSpace=wrap;connectable=0;strokeColor=inherit;overflow=hidden;fillColor=none;top=0;left=0;bottom=0;right=0;pointerEvents=1;fontSize=16;" vertex="1" parent="CQitvJXa9ZDl-KHa1buW-215">
          <mxGeometry x="94" width="45" height="21" as="geometry">
            <mxRectangle width="45" height="21" as="alternateBounds" />
          </mxGeometry>
        </mxCell>
        <mxCell id="CQitvJXa9ZDl-KHa1buW-219" value="" style="shape=tableRow;horizontal=0;startSize=0;swimlaneHead=0;swimlaneBody=0;strokeColor=inherit;top=0;left=0;bottom=0;right=0;collapsible=0;dropTarget=0;fillColor=none;points=[[0,0.5],[1,0.5]];portConstraint=eastwest;fontSize=16;" vertex="1" parent="CQitvJXa9ZDl-KHa1buW-210">
          <mxGeometry y="71" width="139" height="20" as="geometry" />
        </mxCell>
        <mxCell id="CQitvJXa9ZDl-KHa1buW-220" value="" style="shape=partialRectangle;html=1;whiteSpace=wrap;connectable=0;strokeColor=inherit;overflow=hidden;fillColor=none;top=0;left=0;bottom=0;right=0;pointerEvents=1;fontSize=16;" vertex="1" parent="CQitvJXa9ZDl-KHa1buW-219">
          <mxGeometry width="45" height="20" as="geometry">
            <mxRectangle width="45" height="20" as="alternateBounds" />
          </mxGeometry>
        </mxCell>
        <mxCell id="CQitvJXa9ZDl-KHa1buW-221" value="" style="shape=partialRectangle;html=1;whiteSpace=wrap;connectable=0;strokeColor=inherit;overflow=hidden;fillColor=none;top=0;left=0;bottom=0;right=0;pointerEvents=1;fontSize=16;" vertex="1" parent="CQitvJXa9ZDl-KHa1buW-219">
          <mxGeometry x="45" width="49" height="20" as="geometry">
            <mxRectangle width="49" height="20" as="alternateBounds" />
          </mxGeometry>
        </mxCell>
        <mxCell id="CQitvJXa9ZDl-KHa1buW-222" value="" style="shape=partialRectangle;html=1;whiteSpace=wrap;connectable=0;strokeColor=inherit;overflow=hidden;fillColor=none;top=0;left=0;bottom=0;right=0;pointerEvents=1;fontSize=16;" vertex="1" parent="CQitvJXa9ZDl-KHa1buW-219">
          <mxGeometry x="94" width="45" height="20" as="geometry">
            <mxRectangle width="45" height="20" as="alternateBounds" />
          </mxGeometry>
        </mxCell>
        <mxCell id="CQitvJXa9ZDl-KHa1buW-223" value="" style="rounded=0;whiteSpace=wrap;html=1;" vertex="1" parent="1">
          <mxGeometry x="684" y="244" width="503" height="888" as="geometry" />
        </mxCell>
        <mxCell id="CQitvJXa9ZDl-KHa1buW-224" value="dim_user" style="shape=table;startSize=30;container=1;collapsible=0;childLayout=tableLayout;strokeColor=default;fontSize=16;" vertex="1" parent="1">
          <mxGeometry x="696" y="315" width="138" height="90.75" as="geometry" />
        </mxCell>
        <mxCell id="CQitvJXa9ZDl-KHa1buW-225" value="" style="shape=tableRow;horizontal=0;startSize=0;swimlaneHead=0;swimlaneBody=0;strokeColor=inherit;top=0;left=0;bottom=0;right=0;collapsible=0;dropTarget=0;fillColor=none;points=[[0,0.5],[1,0.5]];portConstraint=eastwest;fontSize=16;" vertex="1" parent="CQitvJXa9ZDl-KHa1buW-224">
          <mxGeometry y="30" width="138" height="20" as="geometry" />
        </mxCell>
        <mxCell id="CQitvJXa9ZDl-KHa1buW-226" value="" style="shape=partialRectangle;html=1;whiteSpace=wrap;connectable=0;strokeColor=inherit;overflow=hidden;fillColor=none;top=0;left=0;bottom=0;right=0;pointerEvents=1;fontSize=16;" vertex="1" parent="CQitvJXa9ZDl-KHa1buW-225">
          <mxGeometry width="45" height="20" as="geometry">
            <mxRectangle width="45" height="20" as="alternateBounds" />
          </mxGeometry>
        </mxCell>
        <mxCell id="CQitvJXa9ZDl-KHa1buW-227" value="" style="shape=partialRectangle;html=1;whiteSpace=wrap;connectable=0;strokeColor=inherit;overflow=hidden;fillColor=none;top=0;left=0;bottom=0;right=0;pointerEvents=1;fontSize=16;" vertex="1" parent="CQitvJXa9ZDl-KHa1buW-225">
          <mxGeometry x="45" width="48" height="20" as="geometry">
            <mxRectangle width="48" height="20" as="alternateBounds" />
          </mxGeometry>
        </mxCell>
        <mxCell id="CQitvJXa9ZDl-KHa1buW-228" value="" style="shape=partialRectangle;html=1;whiteSpace=wrap;connectable=0;strokeColor=inherit;overflow=hidden;fillColor=none;top=0;left=0;bottom=0;right=0;pointerEvents=1;fontSize=16;" vertex="1" parent="CQitvJXa9ZDl-KHa1buW-225">
          <mxGeometry x="93" width="45" height="20" as="geometry">
            <mxRectangle width="45" height="20" as="alternateBounds" />
          </mxGeometry>
        </mxCell>
        <mxCell id="CQitvJXa9ZDl-KHa1buW-229" value="" style="shape=tableRow;horizontal=0;startSize=0;swimlaneHead=0;swimlaneBody=0;strokeColor=inherit;top=0;left=0;bottom=0;right=0;collapsible=0;dropTarget=0;fillColor=none;points=[[0,0.5],[1,0.5]];portConstraint=eastwest;fontSize=16;" vertex="1" parent="CQitvJXa9ZDl-KHa1buW-224">
          <mxGeometry y="50" width="138" height="21" as="geometry" />
        </mxCell>
        <mxCell id="CQitvJXa9ZDl-KHa1buW-230" value="" style="shape=partialRectangle;html=1;whiteSpace=wrap;connectable=0;strokeColor=inherit;overflow=hidden;fillColor=none;top=0;left=0;bottom=0;right=0;pointerEvents=1;fontSize=16;" vertex="1" parent="CQitvJXa9ZDl-KHa1buW-229">
          <mxGeometry width="45" height="21" as="geometry">
            <mxRectangle width="45" height="21" as="alternateBounds" />
          </mxGeometry>
        </mxCell>
        <mxCell id="CQitvJXa9ZDl-KHa1buW-231" value="" style="shape=partialRectangle;html=1;whiteSpace=wrap;connectable=0;strokeColor=inherit;overflow=hidden;fillColor=none;top=0;left=0;bottom=0;right=0;pointerEvents=1;fontSize=16;" vertex="1" parent="CQitvJXa9ZDl-KHa1buW-229">
          <mxGeometry x="45" width="48" height="21" as="geometry">
            <mxRectangle width="48" height="21" as="alternateBounds" />
          </mxGeometry>
        </mxCell>
        <mxCell id="CQitvJXa9ZDl-KHa1buW-232" value="" style="shape=partialRectangle;html=1;whiteSpace=wrap;connectable=0;strokeColor=inherit;overflow=hidden;fillColor=none;top=0;left=0;bottom=0;right=0;pointerEvents=1;fontSize=16;" vertex="1" parent="CQitvJXa9ZDl-KHa1buW-229">
          <mxGeometry x="93" width="45" height="21" as="geometry">
            <mxRectangle width="45" height="21" as="alternateBounds" />
          </mxGeometry>
        </mxCell>
        <mxCell id="CQitvJXa9ZDl-KHa1buW-233" value="" style="shape=tableRow;horizontal=0;startSize=0;swimlaneHead=0;swimlaneBody=0;strokeColor=inherit;top=0;left=0;bottom=0;right=0;collapsible=0;dropTarget=0;fillColor=none;points=[[0,0.5],[1,0.5]];portConstraint=eastwest;fontSize=16;" vertex="1" parent="CQitvJXa9ZDl-KHa1buW-224">
          <mxGeometry y="71" width="138" height="20" as="geometry" />
        </mxCell>
        <mxCell id="CQitvJXa9ZDl-KHa1buW-234" value="" style="shape=partialRectangle;html=1;whiteSpace=wrap;connectable=0;strokeColor=inherit;overflow=hidden;fillColor=none;top=0;left=0;bottom=0;right=0;pointerEvents=1;fontSize=16;" vertex="1" parent="CQitvJXa9ZDl-KHa1buW-233">
          <mxGeometry width="45" height="20" as="geometry">
            <mxRectangle width="45" height="20" as="alternateBounds" />
          </mxGeometry>
        </mxCell>
        <mxCell id="CQitvJXa9ZDl-KHa1buW-235" value="" style="shape=partialRectangle;html=1;whiteSpace=wrap;connectable=0;strokeColor=inherit;overflow=hidden;fillColor=none;top=0;left=0;bottom=0;right=0;pointerEvents=1;fontSize=16;" vertex="1" parent="CQitvJXa9ZDl-KHa1buW-233">
          <mxGeometry x="45" width="48" height="20" as="geometry">
            <mxRectangle width="48" height="20" as="alternateBounds" />
          </mxGeometry>
        </mxCell>
        <mxCell id="CQitvJXa9ZDl-KHa1buW-236" value="" style="shape=partialRectangle;html=1;whiteSpace=wrap;connectable=0;strokeColor=inherit;overflow=hidden;fillColor=none;top=0;left=0;bottom=0;right=0;pointerEvents=1;fontSize=16;" vertex="1" parent="CQitvJXa9ZDl-KHa1buW-233">
          <mxGeometry x="93" width="45" height="20" as="geometry">
            <mxRectangle width="45" height="20" as="alternateBounds" />
          </mxGeometry>
        </mxCell>
        <mxCell id="CQitvJXa9ZDl-KHa1buW-237" value="dim_business" style="shape=table;startSize=30;container=1;collapsible=0;childLayout=tableLayout;strokeColor=default;fontSize=16;" vertex="1" parent="1">
          <mxGeometry x="696" y="437" width="139" height="90.75" as="geometry" />
        </mxCell>
        <mxCell id="CQitvJXa9ZDl-KHa1buW-238" value="" style="shape=tableRow;horizontal=0;startSize=0;swimlaneHead=0;swimlaneBody=0;strokeColor=inherit;top=0;left=0;bottom=0;right=0;collapsible=0;dropTarget=0;fillColor=none;points=[[0,0.5],[1,0.5]];portConstraint=eastwest;fontSize=16;" vertex="1" parent="CQitvJXa9ZDl-KHa1buW-237">
          <mxGeometry y="30" width="139" height="20" as="geometry" />
        </mxCell>
        <mxCell id="CQitvJXa9ZDl-KHa1buW-239" value="" style="shape=partialRectangle;html=1;whiteSpace=wrap;connectable=0;strokeColor=inherit;overflow=hidden;fillColor=none;top=0;left=0;bottom=0;right=0;pointerEvents=1;fontSize=16;" vertex="1" parent="CQitvJXa9ZDl-KHa1buW-238">
          <mxGeometry width="45" height="20" as="geometry">
            <mxRectangle width="45" height="20" as="alternateBounds" />
          </mxGeometry>
        </mxCell>
        <mxCell id="CQitvJXa9ZDl-KHa1buW-240" value="" style="shape=partialRectangle;html=1;whiteSpace=wrap;connectable=0;strokeColor=inherit;overflow=hidden;fillColor=none;top=0;left=0;bottom=0;right=0;pointerEvents=1;fontSize=16;" vertex="1" parent="CQitvJXa9ZDl-KHa1buW-238">
          <mxGeometry x="45" width="49" height="20" as="geometry">
            <mxRectangle width="49" height="20" as="alternateBounds" />
          </mxGeometry>
        </mxCell>
        <mxCell id="CQitvJXa9ZDl-KHa1buW-241" value="" style="shape=partialRectangle;html=1;whiteSpace=wrap;connectable=0;strokeColor=inherit;overflow=hidden;fillColor=none;top=0;left=0;bottom=0;right=0;pointerEvents=1;fontSize=16;" vertex="1" parent="CQitvJXa9ZDl-KHa1buW-238">
          <mxGeometry x="94" width="45" height="20" as="geometry">
            <mxRectangle width="45" height="20" as="alternateBounds" />
          </mxGeometry>
        </mxCell>
        <mxCell id="CQitvJXa9ZDl-KHa1buW-242" value="" style="shape=tableRow;horizontal=0;startSize=0;swimlaneHead=0;swimlaneBody=0;strokeColor=inherit;top=0;left=0;bottom=0;right=0;collapsible=0;dropTarget=0;fillColor=none;points=[[0,0.5],[1,0.5]];portConstraint=eastwest;fontSize=16;" vertex="1" parent="CQitvJXa9ZDl-KHa1buW-237">
          <mxGeometry y="50" width="139" height="21" as="geometry" />
        </mxCell>
        <mxCell id="CQitvJXa9ZDl-KHa1buW-243" value="" style="shape=partialRectangle;html=1;whiteSpace=wrap;connectable=0;strokeColor=inherit;overflow=hidden;fillColor=none;top=0;left=0;bottom=0;right=0;pointerEvents=1;fontSize=16;" vertex="1" parent="CQitvJXa9ZDl-KHa1buW-242">
          <mxGeometry width="45" height="21" as="geometry">
            <mxRectangle width="45" height="21" as="alternateBounds" />
          </mxGeometry>
        </mxCell>
        <mxCell id="CQitvJXa9ZDl-KHa1buW-244" value="" style="shape=partialRectangle;html=1;whiteSpace=wrap;connectable=0;strokeColor=inherit;overflow=hidden;fillColor=none;top=0;left=0;bottom=0;right=0;pointerEvents=1;fontSize=16;" vertex="1" parent="CQitvJXa9ZDl-KHa1buW-242">
          <mxGeometry x="45" width="49" height="21" as="geometry">
            <mxRectangle width="49" height="21" as="alternateBounds" />
          </mxGeometry>
        </mxCell>
        <mxCell id="CQitvJXa9ZDl-KHa1buW-245" value="" style="shape=partialRectangle;html=1;whiteSpace=wrap;connectable=0;strokeColor=inherit;overflow=hidden;fillColor=none;top=0;left=0;bottom=0;right=0;pointerEvents=1;fontSize=16;" vertex="1" parent="CQitvJXa9ZDl-KHa1buW-242">
          <mxGeometry x="94" width="45" height="21" as="geometry">
            <mxRectangle width="45" height="21" as="alternateBounds" />
          </mxGeometry>
        </mxCell>
        <mxCell id="CQitvJXa9ZDl-KHa1buW-246" value="" style="shape=tableRow;horizontal=0;startSize=0;swimlaneHead=0;swimlaneBody=0;strokeColor=inherit;top=0;left=0;bottom=0;right=0;collapsible=0;dropTarget=0;fillColor=none;points=[[0,0.5],[1,0.5]];portConstraint=eastwest;fontSize=16;" vertex="1" parent="CQitvJXa9ZDl-KHa1buW-237">
          <mxGeometry y="71" width="139" height="20" as="geometry" />
        </mxCell>
        <mxCell id="CQitvJXa9ZDl-KHa1buW-247" value="" style="shape=partialRectangle;html=1;whiteSpace=wrap;connectable=0;strokeColor=inherit;overflow=hidden;fillColor=none;top=0;left=0;bottom=0;right=0;pointerEvents=1;fontSize=16;" vertex="1" parent="CQitvJXa9ZDl-KHa1buW-246">
          <mxGeometry width="45" height="20" as="geometry">
            <mxRectangle width="45" height="20" as="alternateBounds" />
          </mxGeometry>
        </mxCell>
        <mxCell id="CQitvJXa9ZDl-KHa1buW-248" value="" style="shape=partialRectangle;html=1;whiteSpace=wrap;connectable=0;strokeColor=inherit;overflow=hidden;fillColor=none;top=0;left=0;bottom=0;right=0;pointerEvents=1;fontSize=16;" vertex="1" parent="CQitvJXa9ZDl-KHa1buW-246">
          <mxGeometry x="45" width="49" height="20" as="geometry">
            <mxRectangle width="49" height="20" as="alternateBounds" />
          </mxGeometry>
        </mxCell>
        <mxCell id="CQitvJXa9ZDl-KHa1buW-249" value="" style="shape=partialRectangle;html=1;whiteSpace=wrap;connectable=0;strokeColor=inherit;overflow=hidden;fillColor=none;top=0;left=0;bottom=0;right=0;pointerEvents=1;fontSize=16;" vertex="1" parent="CQitvJXa9ZDl-KHa1buW-246">
          <mxGeometry x="94" width="45" height="20" as="geometry">
            <mxRectangle width="45" height="20" as="alternateBounds" />
          </mxGeometry>
        </mxCell>
        <mxCell id="CQitvJXa9ZDl-KHa1buW-250" value="tip_stg" style="shape=table;startSize=30;container=1;collapsible=0;childLayout=tableLayout;strokeColor=default;fontSize=16;" vertex="1" parent="1">
          <mxGeometry x="320" y="704" width="139" height="90.75" as="geometry" />
        </mxCell>
        <mxCell id="CQitvJXa9ZDl-KHa1buW-251" value="" style="shape=tableRow;horizontal=0;startSize=0;swimlaneHead=0;swimlaneBody=0;strokeColor=inherit;top=0;left=0;bottom=0;right=0;collapsible=0;dropTarget=0;fillColor=none;points=[[0,0.5],[1,0.5]];portConstraint=eastwest;fontSize=16;" vertex="1" parent="CQitvJXa9ZDl-KHa1buW-250">
          <mxGeometry y="30" width="139" height="20" as="geometry" />
        </mxCell>
        <mxCell id="CQitvJXa9ZDl-KHa1buW-252" value="" style="shape=partialRectangle;html=1;whiteSpace=wrap;connectable=0;strokeColor=inherit;overflow=hidden;fillColor=none;top=0;left=0;bottom=0;right=0;pointerEvents=1;fontSize=16;" vertex="1" parent="CQitvJXa9ZDl-KHa1buW-251">
          <mxGeometry width="45" height="20" as="geometry">
            <mxRectangle width="45" height="20" as="alternateBounds" />
          </mxGeometry>
        </mxCell>
        <mxCell id="CQitvJXa9ZDl-KHa1buW-253" value="" style="shape=partialRectangle;html=1;whiteSpace=wrap;connectable=0;strokeColor=inherit;overflow=hidden;fillColor=none;top=0;left=0;bottom=0;right=0;pointerEvents=1;fontSize=16;" vertex="1" parent="CQitvJXa9ZDl-KHa1buW-251">
          <mxGeometry x="45" width="49" height="20" as="geometry">
            <mxRectangle width="49" height="20" as="alternateBounds" />
          </mxGeometry>
        </mxCell>
        <mxCell id="CQitvJXa9ZDl-KHa1buW-254" value="" style="shape=partialRectangle;html=1;whiteSpace=wrap;connectable=0;strokeColor=inherit;overflow=hidden;fillColor=none;top=0;left=0;bottom=0;right=0;pointerEvents=1;fontSize=16;" vertex="1" parent="CQitvJXa9ZDl-KHa1buW-251">
          <mxGeometry x="94" width="45" height="20" as="geometry">
            <mxRectangle width="45" height="20" as="alternateBounds" />
          </mxGeometry>
        </mxCell>
        <mxCell id="CQitvJXa9ZDl-KHa1buW-255" value="" style="shape=tableRow;horizontal=0;startSize=0;swimlaneHead=0;swimlaneBody=0;strokeColor=inherit;top=0;left=0;bottom=0;right=0;collapsible=0;dropTarget=0;fillColor=none;points=[[0,0.5],[1,0.5]];portConstraint=eastwest;fontSize=16;" vertex="1" parent="CQitvJXa9ZDl-KHa1buW-250">
          <mxGeometry y="50" width="139" height="21" as="geometry" />
        </mxCell>
        <mxCell id="CQitvJXa9ZDl-KHa1buW-256" value="" style="shape=partialRectangle;html=1;whiteSpace=wrap;connectable=0;strokeColor=inherit;overflow=hidden;fillColor=none;top=0;left=0;bottom=0;right=0;pointerEvents=1;fontSize=16;" vertex="1" parent="CQitvJXa9ZDl-KHa1buW-255">
          <mxGeometry width="45" height="21" as="geometry">
            <mxRectangle width="45" height="21" as="alternateBounds" />
          </mxGeometry>
        </mxCell>
        <mxCell id="CQitvJXa9ZDl-KHa1buW-257" value="" style="shape=partialRectangle;html=1;whiteSpace=wrap;connectable=0;strokeColor=inherit;overflow=hidden;fillColor=none;top=0;left=0;bottom=0;right=0;pointerEvents=1;fontSize=16;" vertex="1" parent="CQitvJXa9ZDl-KHa1buW-255">
          <mxGeometry x="45" width="49" height="21" as="geometry">
            <mxRectangle width="49" height="21" as="alternateBounds" />
          </mxGeometry>
        </mxCell>
        <mxCell id="CQitvJXa9ZDl-KHa1buW-258" value="" style="shape=partialRectangle;html=1;whiteSpace=wrap;connectable=0;strokeColor=inherit;overflow=hidden;fillColor=none;top=0;left=0;bottom=0;right=0;pointerEvents=1;fontSize=16;" vertex="1" parent="CQitvJXa9ZDl-KHa1buW-255">
          <mxGeometry x="94" width="45" height="21" as="geometry">
            <mxRectangle width="45" height="21" as="alternateBounds" />
          </mxGeometry>
        </mxCell>
        <mxCell id="CQitvJXa9ZDl-KHa1buW-259" value="" style="shape=tableRow;horizontal=0;startSize=0;swimlaneHead=0;swimlaneBody=0;strokeColor=inherit;top=0;left=0;bottom=0;right=0;collapsible=0;dropTarget=0;fillColor=none;points=[[0,0.5],[1,0.5]];portConstraint=eastwest;fontSize=16;" vertex="1" parent="CQitvJXa9ZDl-KHa1buW-250">
          <mxGeometry y="71" width="139" height="20" as="geometry" />
        </mxCell>
        <mxCell id="CQitvJXa9ZDl-KHa1buW-260" value="" style="shape=partialRectangle;html=1;whiteSpace=wrap;connectable=0;strokeColor=inherit;overflow=hidden;fillColor=none;top=0;left=0;bottom=0;right=0;pointerEvents=1;fontSize=16;" vertex="1" parent="CQitvJXa9ZDl-KHa1buW-259">
          <mxGeometry width="45" height="20" as="geometry">
            <mxRectangle width="45" height="20" as="alternateBounds" />
          </mxGeometry>
        </mxCell>
        <mxCell id="CQitvJXa9ZDl-KHa1buW-261" value="" style="shape=partialRectangle;html=1;whiteSpace=wrap;connectable=0;strokeColor=inherit;overflow=hidden;fillColor=none;top=0;left=0;bottom=0;right=0;pointerEvents=1;fontSize=16;" vertex="1" parent="CQitvJXa9ZDl-KHa1buW-259">
          <mxGeometry x="45" width="49" height="20" as="geometry">
            <mxRectangle width="49" height="20" as="alternateBounds" />
          </mxGeometry>
        </mxCell>
        <mxCell id="CQitvJXa9ZDl-KHa1buW-262" value="" style="shape=partialRectangle;html=1;whiteSpace=wrap;connectable=0;strokeColor=inherit;overflow=hidden;fillColor=none;top=0;left=0;bottom=0;right=0;pointerEvents=1;fontSize=16;" vertex="1" parent="CQitvJXa9ZDl-KHa1buW-259">
          <mxGeometry x="94" width="45" height="20" as="geometry">
            <mxRectangle width="45" height="20" as="alternateBounds" />
          </mxGeometry>
        </mxCell>
        <mxCell id="CQitvJXa9ZDl-KHa1buW-263" value="" style="dashed=0;outlineConnect=0;html=1;align=center;labelPosition=center;verticalLabelPosition=bottom;verticalAlign=top;shape=mxgraph.webicons.json;gradientColor=#DFDEDE" vertex="1" parent="1">
          <mxGeometry x="204" y="704" width="87.7" height="90" as="geometry" />
        </mxCell>
        <mxCell id="CQitvJXa9ZDl-KHa1buW-264" value="tip" style="shape=table;startSize=30;container=1;collapsible=0;childLayout=tableLayout;strokeColor=default;fontSize=16;" vertex="1" parent="1">
          <mxGeometry x="492" y="706" width="139" height="90.75" as="geometry" />
        </mxCell>
        <mxCell id="CQitvJXa9ZDl-KHa1buW-265" value="" style="shape=tableRow;horizontal=0;startSize=0;swimlaneHead=0;swimlaneBody=0;strokeColor=inherit;top=0;left=0;bottom=0;right=0;collapsible=0;dropTarget=0;fillColor=none;points=[[0,0.5],[1,0.5]];portConstraint=eastwest;fontSize=16;" vertex="1" parent="CQitvJXa9ZDl-KHa1buW-264">
          <mxGeometry y="30" width="139" height="20" as="geometry" />
        </mxCell>
        <mxCell id="CQitvJXa9ZDl-KHa1buW-266" value="" style="shape=partialRectangle;html=1;whiteSpace=wrap;connectable=0;strokeColor=inherit;overflow=hidden;fillColor=none;top=0;left=0;bottom=0;right=0;pointerEvents=1;fontSize=16;" vertex="1" parent="CQitvJXa9ZDl-KHa1buW-265">
          <mxGeometry width="45" height="20" as="geometry">
            <mxRectangle width="45" height="20" as="alternateBounds" />
          </mxGeometry>
        </mxCell>
        <mxCell id="CQitvJXa9ZDl-KHa1buW-267" value="" style="shape=partialRectangle;html=1;whiteSpace=wrap;connectable=0;strokeColor=inherit;overflow=hidden;fillColor=none;top=0;left=0;bottom=0;right=0;pointerEvents=1;fontSize=16;" vertex="1" parent="CQitvJXa9ZDl-KHa1buW-265">
          <mxGeometry x="45" width="49" height="20" as="geometry">
            <mxRectangle width="49" height="20" as="alternateBounds" />
          </mxGeometry>
        </mxCell>
        <mxCell id="CQitvJXa9ZDl-KHa1buW-268" value="" style="shape=partialRectangle;html=1;whiteSpace=wrap;connectable=0;strokeColor=inherit;overflow=hidden;fillColor=none;top=0;left=0;bottom=0;right=0;pointerEvents=1;fontSize=16;" vertex="1" parent="CQitvJXa9ZDl-KHa1buW-265">
          <mxGeometry x="94" width="45" height="20" as="geometry">
            <mxRectangle width="45" height="20" as="alternateBounds" />
          </mxGeometry>
        </mxCell>
        <mxCell id="CQitvJXa9ZDl-KHa1buW-269" value="" style="shape=tableRow;horizontal=0;startSize=0;swimlaneHead=0;swimlaneBody=0;strokeColor=inherit;top=0;left=0;bottom=0;right=0;collapsible=0;dropTarget=0;fillColor=none;points=[[0,0.5],[1,0.5]];portConstraint=eastwest;fontSize=16;" vertex="1" parent="CQitvJXa9ZDl-KHa1buW-264">
          <mxGeometry y="50" width="139" height="21" as="geometry" />
        </mxCell>
        <mxCell id="CQitvJXa9ZDl-KHa1buW-270" value="" style="shape=partialRectangle;html=1;whiteSpace=wrap;connectable=0;strokeColor=inherit;overflow=hidden;fillColor=none;top=0;left=0;bottom=0;right=0;pointerEvents=1;fontSize=16;" vertex="1" parent="CQitvJXa9ZDl-KHa1buW-269">
          <mxGeometry width="45" height="21" as="geometry">
            <mxRectangle width="45" height="21" as="alternateBounds" />
          </mxGeometry>
        </mxCell>
        <mxCell id="CQitvJXa9ZDl-KHa1buW-271" value="" style="shape=partialRectangle;html=1;whiteSpace=wrap;connectable=0;strokeColor=inherit;overflow=hidden;fillColor=none;top=0;left=0;bottom=0;right=0;pointerEvents=1;fontSize=16;" vertex="1" parent="CQitvJXa9ZDl-KHa1buW-269">
          <mxGeometry x="45" width="49" height="21" as="geometry">
            <mxRectangle width="49" height="21" as="alternateBounds" />
          </mxGeometry>
        </mxCell>
        <mxCell id="CQitvJXa9ZDl-KHa1buW-272" value="" style="shape=partialRectangle;html=1;whiteSpace=wrap;connectable=0;strokeColor=inherit;overflow=hidden;fillColor=none;top=0;left=0;bottom=0;right=0;pointerEvents=1;fontSize=16;" vertex="1" parent="CQitvJXa9ZDl-KHa1buW-269">
          <mxGeometry x="94" width="45" height="21" as="geometry">
            <mxRectangle width="45" height="21" as="alternateBounds" />
          </mxGeometry>
        </mxCell>
        <mxCell id="CQitvJXa9ZDl-KHa1buW-273" value="" style="shape=tableRow;horizontal=0;startSize=0;swimlaneHead=0;swimlaneBody=0;strokeColor=inherit;top=0;left=0;bottom=0;right=0;collapsible=0;dropTarget=0;fillColor=none;points=[[0,0.5],[1,0.5]];portConstraint=eastwest;fontSize=16;" vertex="1" parent="CQitvJXa9ZDl-KHa1buW-264">
          <mxGeometry y="71" width="139" height="20" as="geometry" />
        </mxCell>
        <mxCell id="CQitvJXa9ZDl-KHa1buW-274" value="" style="shape=partialRectangle;html=1;whiteSpace=wrap;connectable=0;strokeColor=inherit;overflow=hidden;fillColor=none;top=0;left=0;bottom=0;right=0;pointerEvents=1;fontSize=16;" vertex="1" parent="CQitvJXa9ZDl-KHa1buW-273">
          <mxGeometry width="45" height="20" as="geometry">
            <mxRectangle width="45" height="20" as="alternateBounds" />
          </mxGeometry>
        </mxCell>
        <mxCell id="CQitvJXa9ZDl-KHa1buW-275" value="" style="shape=partialRectangle;html=1;whiteSpace=wrap;connectable=0;strokeColor=inherit;overflow=hidden;fillColor=none;top=0;left=0;bottom=0;right=0;pointerEvents=1;fontSize=16;" vertex="1" parent="CQitvJXa9ZDl-KHa1buW-273">
          <mxGeometry x="45" width="49" height="20" as="geometry">
            <mxRectangle width="49" height="20" as="alternateBounds" />
          </mxGeometry>
        </mxCell>
        <mxCell id="CQitvJXa9ZDl-KHa1buW-276" value="" style="shape=partialRectangle;html=1;whiteSpace=wrap;connectable=0;strokeColor=inherit;overflow=hidden;fillColor=none;top=0;left=0;bottom=0;right=0;pointerEvents=1;fontSize=16;" vertex="1" parent="CQitvJXa9ZDl-KHa1buW-273">
          <mxGeometry x="94" width="45" height="20" as="geometry">
            <mxRectangle width="45" height="20" as="alternateBounds" />
          </mxGeometry>
        </mxCell>
        <mxCell id="CQitvJXa9ZDl-KHa1buW-337" style="edgeStyle=orthogonalEdgeStyle;rounded=0;orthogonalLoop=1;jettySize=auto;html=1;" edge="1" parent="1" source="CQitvJXa9ZDl-KHa1buW-277">
          <mxGeometry relative="1" as="geometry">
            <mxPoint x="939" y="461" as="targetPoint" />
          </mxGeometry>
        </mxCell>
        <mxCell id="CQitvJXa9ZDl-KHa1buW-277" value="dim_precipitation" style="shape=table;startSize=30;container=1;collapsible=0;childLayout=tableLayout;strokeColor=default;fontSize=16;" vertex="1" parent="1">
          <mxGeometry x="870" y="573" width="139" height="90.75" as="geometry" />
        </mxCell>
        <mxCell id="CQitvJXa9ZDl-KHa1buW-278" value="" style="shape=tableRow;horizontal=0;startSize=0;swimlaneHead=0;swimlaneBody=0;strokeColor=inherit;top=0;left=0;bottom=0;right=0;collapsible=0;dropTarget=0;fillColor=none;points=[[0,0.5],[1,0.5]];portConstraint=eastwest;fontSize=16;" vertex="1" parent="CQitvJXa9ZDl-KHa1buW-277">
          <mxGeometry y="30" width="139" height="20" as="geometry" />
        </mxCell>
        <mxCell id="CQitvJXa9ZDl-KHa1buW-279" value="" style="shape=partialRectangle;html=1;whiteSpace=wrap;connectable=0;strokeColor=inherit;overflow=hidden;fillColor=none;top=0;left=0;bottom=0;right=0;pointerEvents=1;fontSize=16;" vertex="1" parent="CQitvJXa9ZDl-KHa1buW-278">
          <mxGeometry width="45" height="20" as="geometry">
            <mxRectangle width="45" height="20" as="alternateBounds" />
          </mxGeometry>
        </mxCell>
        <mxCell id="CQitvJXa9ZDl-KHa1buW-280" value="" style="shape=partialRectangle;html=1;whiteSpace=wrap;connectable=0;strokeColor=inherit;overflow=hidden;fillColor=none;top=0;left=0;bottom=0;right=0;pointerEvents=1;fontSize=16;" vertex="1" parent="CQitvJXa9ZDl-KHa1buW-278">
          <mxGeometry x="45" width="49" height="20" as="geometry">
            <mxRectangle width="49" height="20" as="alternateBounds" />
          </mxGeometry>
        </mxCell>
        <mxCell id="CQitvJXa9ZDl-KHa1buW-281" value="" style="shape=partialRectangle;html=1;whiteSpace=wrap;connectable=0;strokeColor=inherit;overflow=hidden;fillColor=none;top=0;left=0;bottom=0;right=0;pointerEvents=1;fontSize=16;" vertex="1" parent="CQitvJXa9ZDl-KHa1buW-278">
          <mxGeometry x="94" width="45" height="20" as="geometry">
            <mxRectangle width="45" height="20" as="alternateBounds" />
          </mxGeometry>
        </mxCell>
        <mxCell id="CQitvJXa9ZDl-KHa1buW-282" value="" style="shape=tableRow;horizontal=0;startSize=0;swimlaneHead=0;swimlaneBody=0;strokeColor=inherit;top=0;left=0;bottom=0;right=0;collapsible=0;dropTarget=0;fillColor=none;points=[[0,0.5],[1,0.5]];portConstraint=eastwest;fontSize=16;" vertex="1" parent="CQitvJXa9ZDl-KHa1buW-277">
          <mxGeometry y="50" width="139" height="21" as="geometry" />
        </mxCell>
        <mxCell id="CQitvJXa9ZDl-KHa1buW-283" value="" style="shape=partialRectangle;html=1;whiteSpace=wrap;connectable=0;strokeColor=inherit;overflow=hidden;fillColor=none;top=0;left=0;bottom=0;right=0;pointerEvents=1;fontSize=16;" vertex="1" parent="CQitvJXa9ZDl-KHa1buW-282">
          <mxGeometry width="45" height="21" as="geometry">
            <mxRectangle width="45" height="21" as="alternateBounds" />
          </mxGeometry>
        </mxCell>
        <mxCell id="CQitvJXa9ZDl-KHa1buW-284" value="" style="shape=partialRectangle;html=1;whiteSpace=wrap;connectable=0;strokeColor=inherit;overflow=hidden;fillColor=none;top=0;left=0;bottom=0;right=0;pointerEvents=1;fontSize=16;" vertex="1" parent="CQitvJXa9ZDl-KHa1buW-282">
          <mxGeometry x="45" width="49" height="21" as="geometry">
            <mxRectangle width="49" height="21" as="alternateBounds" />
          </mxGeometry>
        </mxCell>
        <mxCell id="CQitvJXa9ZDl-KHa1buW-285" value="" style="shape=partialRectangle;html=1;whiteSpace=wrap;connectable=0;strokeColor=inherit;overflow=hidden;fillColor=none;top=0;left=0;bottom=0;right=0;pointerEvents=1;fontSize=16;" vertex="1" parent="CQitvJXa9ZDl-KHa1buW-282">
          <mxGeometry x="94" width="45" height="21" as="geometry">
            <mxRectangle width="45" height="21" as="alternateBounds" />
          </mxGeometry>
        </mxCell>
        <mxCell id="CQitvJXa9ZDl-KHa1buW-286" value="" style="shape=tableRow;horizontal=0;startSize=0;swimlaneHead=0;swimlaneBody=0;strokeColor=inherit;top=0;left=0;bottom=0;right=0;collapsible=0;dropTarget=0;fillColor=none;points=[[0,0.5],[1,0.5]];portConstraint=eastwest;fontSize=16;" vertex="1" parent="CQitvJXa9ZDl-KHa1buW-277">
          <mxGeometry y="71" width="139" height="20" as="geometry" />
        </mxCell>
        <mxCell id="CQitvJXa9ZDl-KHa1buW-287" value="" style="shape=partialRectangle;html=1;whiteSpace=wrap;connectable=0;strokeColor=inherit;overflow=hidden;fillColor=none;top=0;left=0;bottom=0;right=0;pointerEvents=1;fontSize=16;" vertex="1" parent="CQitvJXa9ZDl-KHa1buW-286">
          <mxGeometry width="45" height="20" as="geometry">
            <mxRectangle width="45" height="20" as="alternateBounds" />
          </mxGeometry>
        </mxCell>
        <mxCell id="CQitvJXa9ZDl-KHa1buW-288" value="" style="shape=partialRectangle;html=1;whiteSpace=wrap;connectable=0;strokeColor=inherit;overflow=hidden;fillColor=none;top=0;left=0;bottom=0;right=0;pointerEvents=1;fontSize=16;" vertex="1" parent="CQitvJXa9ZDl-KHa1buW-286">
          <mxGeometry x="45" width="49" height="20" as="geometry">
            <mxRectangle width="49" height="20" as="alternateBounds" />
          </mxGeometry>
        </mxCell>
        <mxCell id="CQitvJXa9ZDl-KHa1buW-289" value="" style="shape=partialRectangle;html=1;whiteSpace=wrap;connectable=0;strokeColor=inherit;overflow=hidden;fillColor=none;top=0;left=0;bottom=0;right=0;pointerEvents=1;fontSize=16;" vertex="1" parent="CQitvJXa9ZDl-KHa1buW-286">
          <mxGeometry x="94" width="45" height="20" as="geometry">
            <mxRectangle width="45" height="20" as="alternateBounds" />
          </mxGeometry>
        </mxCell>
        <mxCell id="CQitvJXa9ZDl-KHa1buW-331" style="edgeStyle=orthogonalEdgeStyle;rounded=0;orthogonalLoop=1;jettySize=auto;html=1;" edge="1" parent="1" source="CQitvJXa9ZDl-KHa1buW-290" target="CQitvJXa9ZDl-KHa1buW-316">
          <mxGeometry relative="1" as="geometry" />
        </mxCell>
        <mxCell id="CQitvJXa9ZDl-KHa1buW-290" value="dim_temperature" style="shape=table;startSize=30;container=1;collapsible=0;childLayout=tableLayout;strokeColor=default;fontSize=16;" vertex="1" parent="1">
          <mxGeometry x="1034" y="270" width="139" height="90.75" as="geometry" />
        </mxCell>
        <mxCell id="CQitvJXa9ZDl-KHa1buW-291" value="" style="shape=tableRow;horizontal=0;startSize=0;swimlaneHead=0;swimlaneBody=0;strokeColor=inherit;top=0;left=0;bottom=0;right=0;collapsible=0;dropTarget=0;fillColor=none;points=[[0,0.5],[1,0.5]];portConstraint=eastwest;fontSize=16;" vertex="1" parent="CQitvJXa9ZDl-KHa1buW-290">
          <mxGeometry y="30" width="139" height="20" as="geometry" />
        </mxCell>
        <mxCell id="CQitvJXa9ZDl-KHa1buW-292" value="" style="shape=partialRectangle;html=1;whiteSpace=wrap;connectable=0;strokeColor=inherit;overflow=hidden;fillColor=none;top=0;left=0;bottom=0;right=0;pointerEvents=1;fontSize=16;" vertex="1" parent="CQitvJXa9ZDl-KHa1buW-291">
          <mxGeometry width="45" height="20" as="geometry">
            <mxRectangle width="45" height="20" as="alternateBounds" />
          </mxGeometry>
        </mxCell>
        <mxCell id="CQitvJXa9ZDl-KHa1buW-293" value="" style="shape=partialRectangle;html=1;whiteSpace=wrap;connectable=0;strokeColor=inherit;overflow=hidden;fillColor=none;top=0;left=0;bottom=0;right=0;pointerEvents=1;fontSize=16;" vertex="1" parent="CQitvJXa9ZDl-KHa1buW-291">
          <mxGeometry x="45" width="49" height="20" as="geometry">
            <mxRectangle width="49" height="20" as="alternateBounds" />
          </mxGeometry>
        </mxCell>
        <mxCell id="CQitvJXa9ZDl-KHa1buW-294" value="" style="shape=partialRectangle;html=1;whiteSpace=wrap;connectable=0;strokeColor=inherit;overflow=hidden;fillColor=none;top=0;left=0;bottom=0;right=0;pointerEvents=1;fontSize=16;" vertex="1" parent="CQitvJXa9ZDl-KHa1buW-291">
          <mxGeometry x="94" width="45" height="20" as="geometry">
            <mxRectangle width="45" height="20" as="alternateBounds" />
          </mxGeometry>
        </mxCell>
        <mxCell id="CQitvJXa9ZDl-KHa1buW-295" value="" style="shape=tableRow;horizontal=0;startSize=0;swimlaneHead=0;swimlaneBody=0;strokeColor=inherit;top=0;left=0;bottom=0;right=0;collapsible=0;dropTarget=0;fillColor=none;points=[[0,0.5],[1,0.5]];portConstraint=eastwest;fontSize=16;" vertex="1" parent="CQitvJXa9ZDl-KHa1buW-290">
          <mxGeometry y="50" width="139" height="21" as="geometry" />
        </mxCell>
        <mxCell id="CQitvJXa9ZDl-KHa1buW-296" value="" style="shape=partialRectangle;html=1;whiteSpace=wrap;connectable=0;strokeColor=inherit;overflow=hidden;fillColor=none;top=0;left=0;bottom=0;right=0;pointerEvents=1;fontSize=16;" vertex="1" parent="CQitvJXa9ZDl-KHa1buW-295">
          <mxGeometry width="45" height="21" as="geometry">
            <mxRectangle width="45" height="21" as="alternateBounds" />
          </mxGeometry>
        </mxCell>
        <mxCell id="CQitvJXa9ZDl-KHa1buW-297" value="" style="shape=partialRectangle;html=1;whiteSpace=wrap;connectable=0;strokeColor=inherit;overflow=hidden;fillColor=none;top=0;left=0;bottom=0;right=0;pointerEvents=1;fontSize=16;" vertex="1" parent="CQitvJXa9ZDl-KHa1buW-295">
          <mxGeometry x="45" width="49" height="21" as="geometry">
            <mxRectangle width="49" height="21" as="alternateBounds" />
          </mxGeometry>
        </mxCell>
        <mxCell id="CQitvJXa9ZDl-KHa1buW-298" value="" style="shape=partialRectangle;html=1;whiteSpace=wrap;connectable=0;strokeColor=inherit;overflow=hidden;fillColor=none;top=0;left=0;bottom=0;right=0;pointerEvents=1;fontSize=16;" vertex="1" parent="CQitvJXa9ZDl-KHa1buW-295">
          <mxGeometry x="94" width="45" height="21" as="geometry">
            <mxRectangle width="45" height="21" as="alternateBounds" />
          </mxGeometry>
        </mxCell>
        <mxCell id="CQitvJXa9ZDl-KHa1buW-299" value="" style="shape=tableRow;horizontal=0;startSize=0;swimlaneHead=0;swimlaneBody=0;strokeColor=inherit;top=0;left=0;bottom=0;right=0;collapsible=0;dropTarget=0;fillColor=none;points=[[0,0.5],[1,0.5]];portConstraint=eastwest;fontSize=16;" vertex="1" parent="CQitvJXa9ZDl-KHa1buW-290">
          <mxGeometry y="71" width="139" height="20" as="geometry" />
        </mxCell>
        <mxCell id="CQitvJXa9ZDl-KHa1buW-300" value="" style="shape=partialRectangle;html=1;whiteSpace=wrap;connectable=0;strokeColor=inherit;overflow=hidden;fillColor=none;top=0;left=0;bottom=0;right=0;pointerEvents=1;fontSize=16;" vertex="1" parent="CQitvJXa9ZDl-KHa1buW-299">
          <mxGeometry width="45" height="20" as="geometry">
            <mxRectangle width="45" height="20" as="alternateBounds" />
          </mxGeometry>
        </mxCell>
        <mxCell id="CQitvJXa9ZDl-KHa1buW-301" value="" style="shape=partialRectangle;html=1;whiteSpace=wrap;connectable=0;strokeColor=inherit;overflow=hidden;fillColor=none;top=0;left=0;bottom=0;right=0;pointerEvents=1;fontSize=16;" vertex="1" parent="CQitvJXa9ZDl-KHa1buW-299">
          <mxGeometry x="45" width="49" height="20" as="geometry">
            <mxRectangle width="49" height="20" as="alternateBounds" />
          </mxGeometry>
        </mxCell>
        <mxCell id="CQitvJXa9ZDl-KHa1buW-302" value="" style="shape=partialRectangle;html=1;whiteSpace=wrap;connectable=0;strokeColor=inherit;overflow=hidden;fillColor=none;top=0;left=0;bottom=0;right=0;pointerEvents=1;fontSize=16;" vertex="1" parent="CQitvJXa9ZDl-KHa1buW-299">
          <mxGeometry x="94" width="45" height="20" as="geometry">
            <mxRectangle width="45" height="20" as="alternateBounds" />
          </mxGeometry>
        </mxCell>
        <mxCell id="CQitvJXa9ZDl-KHa1buW-332" style="edgeStyle=orthogonalEdgeStyle;rounded=0;orthogonalLoop=1;jettySize=auto;html=1;entryX=1;entryY=0.5;entryDx=0;entryDy=0;" edge="1" parent="1" source="CQitvJXa9ZDl-KHa1buW-303" target="CQitvJXa9ZDl-KHa1buW-321">
          <mxGeometry relative="1" as="geometry" />
        </mxCell>
        <mxCell id="CQitvJXa9ZDl-KHa1buW-303" value="dim_timestamp" style="shape=table;startSize=30;container=1;collapsible=0;childLayout=tableLayout;strokeColor=default;fontSize=16;" vertex="1" parent="1">
          <mxGeometry x="1022" y="454" width="139" height="90.75" as="geometry" />
        </mxCell>
        <mxCell id="CQitvJXa9ZDl-KHa1buW-304" value="" style="shape=tableRow;horizontal=0;startSize=0;swimlaneHead=0;swimlaneBody=0;strokeColor=inherit;top=0;left=0;bottom=0;right=0;collapsible=0;dropTarget=0;fillColor=none;points=[[0,0.5],[1,0.5]];portConstraint=eastwest;fontSize=16;" vertex="1" parent="CQitvJXa9ZDl-KHa1buW-303">
          <mxGeometry y="30" width="139" height="20" as="geometry" />
        </mxCell>
        <mxCell id="CQitvJXa9ZDl-KHa1buW-305" value="" style="shape=partialRectangle;html=1;whiteSpace=wrap;connectable=0;strokeColor=inherit;overflow=hidden;fillColor=none;top=0;left=0;bottom=0;right=0;pointerEvents=1;fontSize=16;" vertex="1" parent="CQitvJXa9ZDl-KHa1buW-304">
          <mxGeometry width="45" height="20" as="geometry">
            <mxRectangle width="45" height="20" as="alternateBounds" />
          </mxGeometry>
        </mxCell>
        <mxCell id="CQitvJXa9ZDl-KHa1buW-306" value="" style="shape=partialRectangle;html=1;whiteSpace=wrap;connectable=0;strokeColor=inherit;overflow=hidden;fillColor=none;top=0;left=0;bottom=0;right=0;pointerEvents=1;fontSize=16;" vertex="1" parent="CQitvJXa9ZDl-KHa1buW-304">
          <mxGeometry x="45" width="49" height="20" as="geometry">
            <mxRectangle width="49" height="20" as="alternateBounds" />
          </mxGeometry>
        </mxCell>
        <mxCell id="CQitvJXa9ZDl-KHa1buW-307" value="" style="shape=partialRectangle;html=1;whiteSpace=wrap;connectable=0;strokeColor=inherit;overflow=hidden;fillColor=none;top=0;left=0;bottom=0;right=0;pointerEvents=1;fontSize=16;" vertex="1" parent="CQitvJXa9ZDl-KHa1buW-304">
          <mxGeometry x="94" width="45" height="20" as="geometry">
            <mxRectangle width="45" height="20" as="alternateBounds" />
          </mxGeometry>
        </mxCell>
        <mxCell id="CQitvJXa9ZDl-KHa1buW-308" value="" style="shape=tableRow;horizontal=0;startSize=0;swimlaneHead=0;swimlaneBody=0;strokeColor=inherit;top=0;left=0;bottom=0;right=0;collapsible=0;dropTarget=0;fillColor=none;points=[[0,0.5],[1,0.5]];portConstraint=eastwest;fontSize=16;" vertex="1" parent="CQitvJXa9ZDl-KHa1buW-303">
          <mxGeometry y="50" width="139" height="21" as="geometry" />
        </mxCell>
        <mxCell id="CQitvJXa9ZDl-KHa1buW-309" value="" style="shape=partialRectangle;html=1;whiteSpace=wrap;connectable=0;strokeColor=inherit;overflow=hidden;fillColor=none;top=0;left=0;bottom=0;right=0;pointerEvents=1;fontSize=16;" vertex="1" parent="CQitvJXa9ZDl-KHa1buW-308">
          <mxGeometry width="45" height="21" as="geometry">
            <mxRectangle width="45" height="21" as="alternateBounds" />
          </mxGeometry>
        </mxCell>
        <mxCell id="CQitvJXa9ZDl-KHa1buW-310" value="" style="shape=partialRectangle;html=1;whiteSpace=wrap;connectable=0;strokeColor=inherit;overflow=hidden;fillColor=none;top=0;left=0;bottom=0;right=0;pointerEvents=1;fontSize=16;" vertex="1" parent="CQitvJXa9ZDl-KHa1buW-308">
          <mxGeometry x="45" width="49" height="21" as="geometry">
            <mxRectangle width="49" height="21" as="alternateBounds" />
          </mxGeometry>
        </mxCell>
        <mxCell id="CQitvJXa9ZDl-KHa1buW-311" value="" style="shape=partialRectangle;html=1;whiteSpace=wrap;connectable=0;strokeColor=inherit;overflow=hidden;fillColor=none;top=0;left=0;bottom=0;right=0;pointerEvents=1;fontSize=16;" vertex="1" parent="CQitvJXa9ZDl-KHa1buW-308">
          <mxGeometry x="94" width="45" height="21" as="geometry">
            <mxRectangle width="45" height="21" as="alternateBounds" />
          </mxGeometry>
        </mxCell>
        <mxCell id="CQitvJXa9ZDl-KHa1buW-312" value="" style="shape=tableRow;horizontal=0;startSize=0;swimlaneHead=0;swimlaneBody=0;strokeColor=inherit;top=0;left=0;bottom=0;right=0;collapsible=0;dropTarget=0;fillColor=none;points=[[0,0.5],[1,0.5]];portConstraint=eastwest;fontSize=16;" vertex="1" parent="CQitvJXa9ZDl-KHa1buW-303">
          <mxGeometry y="71" width="139" height="20" as="geometry" />
        </mxCell>
        <mxCell id="CQitvJXa9ZDl-KHa1buW-313" value="" style="shape=partialRectangle;html=1;whiteSpace=wrap;connectable=0;strokeColor=inherit;overflow=hidden;fillColor=none;top=0;left=0;bottom=0;right=0;pointerEvents=1;fontSize=16;" vertex="1" parent="CQitvJXa9ZDl-KHa1buW-312">
          <mxGeometry width="45" height="20" as="geometry">
            <mxRectangle width="45" height="20" as="alternateBounds" />
          </mxGeometry>
        </mxCell>
        <mxCell id="CQitvJXa9ZDl-KHa1buW-314" value="" style="shape=partialRectangle;html=1;whiteSpace=wrap;connectable=0;strokeColor=inherit;overflow=hidden;fillColor=none;top=0;left=0;bottom=0;right=0;pointerEvents=1;fontSize=16;" vertex="1" parent="CQitvJXa9ZDl-KHa1buW-312">
          <mxGeometry x="45" width="49" height="20" as="geometry">
            <mxRectangle width="49" height="20" as="alternateBounds" />
          </mxGeometry>
        </mxCell>
        <mxCell id="CQitvJXa9ZDl-KHa1buW-315" value="" style="shape=partialRectangle;html=1;whiteSpace=wrap;connectable=0;strokeColor=inherit;overflow=hidden;fillColor=none;top=0;left=0;bottom=0;right=0;pointerEvents=1;fontSize=16;" vertex="1" parent="CQitvJXa9ZDl-KHa1buW-312">
          <mxGeometry x="94" width="45" height="20" as="geometry">
            <mxRectangle width="45" height="20" as="alternateBounds" />
          </mxGeometry>
        </mxCell>
        <mxCell id="CQitvJXa9ZDl-KHa1buW-316" value="fact_review" style="shape=table;startSize=30;container=1;collapsible=0;childLayout=tableLayout;strokeColor=default;fontSize=16;" vertex="1" parent="1">
          <mxGeometry x="874" y="365" width="139" height="90.75" as="geometry" />
        </mxCell>
        <mxCell id="CQitvJXa9ZDl-KHa1buW-317" value="" style="shape=tableRow;horizontal=0;startSize=0;swimlaneHead=0;swimlaneBody=0;strokeColor=inherit;top=0;left=0;bottom=0;right=0;collapsible=0;dropTarget=0;fillColor=none;points=[[0,0.5],[1,0.5]];portConstraint=eastwest;fontSize=16;" vertex="1" parent="CQitvJXa9ZDl-KHa1buW-316">
          <mxGeometry y="30" width="139" height="20" as="geometry" />
        </mxCell>
        <mxCell id="CQitvJXa9ZDl-KHa1buW-318" value="" style="shape=partialRectangle;html=1;whiteSpace=wrap;connectable=0;strokeColor=inherit;overflow=hidden;fillColor=none;top=0;left=0;bottom=0;right=0;pointerEvents=1;fontSize=16;" vertex="1" parent="CQitvJXa9ZDl-KHa1buW-317">
          <mxGeometry width="45" height="20" as="geometry">
            <mxRectangle width="45" height="20" as="alternateBounds" />
          </mxGeometry>
        </mxCell>
        <mxCell id="CQitvJXa9ZDl-KHa1buW-319" value="" style="shape=partialRectangle;html=1;whiteSpace=wrap;connectable=0;strokeColor=inherit;overflow=hidden;fillColor=none;top=0;left=0;bottom=0;right=0;pointerEvents=1;fontSize=16;" vertex="1" parent="CQitvJXa9ZDl-KHa1buW-317">
          <mxGeometry x="45" width="49" height="20" as="geometry">
            <mxRectangle width="49" height="20" as="alternateBounds" />
          </mxGeometry>
        </mxCell>
        <mxCell id="CQitvJXa9ZDl-KHa1buW-320" value="" style="shape=partialRectangle;html=1;whiteSpace=wrap;connectable=0;strokeColor=inherit;overflow=hidden;fillColor=none;top=0;left=0;bottom=0;right=0;pointerEvents=1;fontSize=16;" vertex="1" parent="CQitvJXa9ZDl-KHa1buW-317">
          <mxGeometry x="94" width="45" height="20" as="geometry">
            <mxRectangle width="45" height="20" as="alternateBounds" />
          </mxGeometry>
        </mxCell>
        <mxCell id="CQitvJXa9ZDl-KHa1buW-321" value="" style="shape=tableRow;horizontal=0;startSize=0;swimlaneHead=0;swimlaneBody=0;strokeColor=inherit;top=0;left=0;bottom=0;right=0;collapsible=0;dropTarget=0;fillColor=none;points=[[0,0.5],[1,0.5]];portConstraint=eastwest;fontSize=16;" vertex="1" parent="CQitvJXa9ZDl-KHa1buW-316">
          <mxGeometry y="50" width="139" height="21" as="geometry" />
        </mxCell>
        <mxCell id="CQitvJXa9ZDl-KHa1buW-322" value="" style="shape=partialRectangle;html=1;whiteSpace=wrap;connectable=0;strokeColor=inherit;overflow=hidden;fillColor=none;top=0;left=0;bottom=0;right=0;pointerEvents=1;fontSize=16;" vertex="1" parent="CQitvJXa9ZDl-KHa1buW-321">
          <mxGeometry width="45" height="21" as="geometry">
            <mxRectangle width="45" height="21" as="alternateBounds" />
          </mxGeometry>
        </mxCell>
        <mxCell id="CQitvJXa9ZDl-KHa1buW-323" value="" style="shape=partialRectangle;html=1;whiteSpace=wrap;connectable=0;strokeColor=inherit;overflow=hidden;fillColor=none;top=0;left=0;bottom=0;right=0;pointerEvents=1;fontSize=16;" vertex="1" parent="CQitvJXa9ZDl-KHa1buW-321">
          <mxGeometry x="45" width="49" height="21" as="geometry">
            <mxRectangle width="49" height="21" as="alternateBounds" />
          </mxGeometry>
        </mxCell>
        <mxCell id="CQitvJXa9ZDl-KHa1buW-324" value="" style="shape=partialRectangle;html=1;whiteSpace=wrap;connectable=0;strokeColor=inherit;overflow=hidden;fillColor=none;top=0;left=0;bottom=0;right=0;pointerEvents=1;fontSize=16;" vertex="1" parent="CQitvJXa9ZDl-KHa1buW-321">
          <mxGeometry x="94" width="45" height="21" as="geometry">
            <mxRectangle width="45" height="21" as="alternateBounds" />
          </mxGeometry>
        </mxCell>
        <mxCell id="CQitvJXa9ZDl-KHa1buW-325" value="" style="shape=tableRow;horizontal=0;startSize=0;swimlaneHead=0;swimlaneBody=0;strokeColor=inherit;top=0;left=0;bottom=0;right=0;collapsible=0;dropTarget=0;fillColor=none;points=[[0,0.5],[1,0.5]];portConstraint=eastwest;fontSize=16;" vertex="1" parent="CQitvJXa9ZDl-KHa1buW-316">
          <mxGeometry y="71" width="139" height="20" as="geometry" />
        </mxCell>
        <mxCell id="CQitvJXa9ZDl-KHa1buW-326" value="" style="shape=partialRectangle;html=1;whiteSpace=wrap;connectable=0;strokeColor=inherit;overflow=hidden;fillColor=none;top=0;left=0;bottom=0;right=0;pointerEvents=1;fontSize=16;" vertex="1" parent="CQitvJXa9ZDl-KHa1buW-325">
          <mxGeometry width="45" height="20" as="geometry">
            <mxRectangle width="45" height="20" as="alternateBounds" />
          </mxGeometry>
        </mxCell>
        <mxCell id="CQitvJXa9ZDl-KHa1buW-327" value="" style="shape=partialRectangle;html=1;whiteSpace=wrap;connectable=0;strokeColor=inherit;overflow=hidden;fillColor=none;top=0;left=0;bottom=0;right=0;pointerEvents=1;fontSize=16;" vertex="1" parent="CQitvJXa9ZDl-KHa1buW-325">
          <mxGeometry x="45" width="49" height="20" as="geometry">
            <mxRectangle width="49" height="20" as="alternateBounds" />
          </mxGeometry>
        </mxCell>
        <mxCell id="CQitvJXa9ZDl-KHa1buW-328" value="" style="shape=partialRectangle;html=1;whiteSpace=wrap;connectable=0;strokeColor=inherit;overflow=hidden;fillColor=none;top=0;left=0;bottom=0;right=0;pointerEvents=1;fontSize=16;" vertex="1" parent="CQitvJXa9ZDl-KHa1buW-325">
          <mxGeometry x="94" width="45" height="20" as="geometry">
            <mxRectangle width="45" height="20" as="alternateBounds" />
          </mxGeometry>
        </mxCell>
        <mxCell id="CQitvJXa9ZDl-KHa1buW-329" style="edgeStyle=orthogonalEdgeStyle;rounded=0;orthogonalLoop=1;jettySize=auto;html=1;entryX=0;entryY=0.85;entryDx=0;entryDy=0;entryPerimeter=0;" edge="1" parent="1" source="CQitvJXa9ZDl-KHa1buW-224" target="CQitvJXa9ZDl-KHa1buW-317">
          <mxGeometry relative="1" as="geometry" />
        </mxCell>
        <mxCell id="CQitvJXa9ZDl-KHa1buW-330" style="edgeStyle=orthogonalEdgeStyle;rounded=0;orthogonalLoop=1;jettySize=auto;html=1;" edge="1" parent="1" source="CQitvJXa9ZDl-KHa1buW-242" target="CQitvJXa9ZDl-KHa1buW-325">
          <mxGeometry relative="1" as="geometry" />
        </mxCell>
        <mxCell id="CQitvJXa9ZDl-KHa1buW-338" value="" style="rounded=0;whiteSpace=wrap;html=1;" vertex="1" parent="1">
          <mxGeometry x="1208" y="242" width="194" height="893" as="geometry" />
        </mxCell>
        <mxCell id="CQitvJXa9ZDl-KHa1buW-339" value="" style="sketch=0;html=1;aspect=fixed;strokeColor=none;shadow=0;fillColor=#3B8DF1;verticalAlign=top;labelPosition=center;verticalLabelPosition=bottom;shape=mxgraph.gcp2.big_query" vertex="1" parent="1">
          <mxGeometry x="1250" y="283.75" width="99" height="100" as="geometry" />
        </mxCell>
      </root>
    </mxGraphModel>
  </diagram>
</mxfile>
